<?xml version="1.0" encoding="UTF-8" standalone="no"?>
<svg
   xmlns:dc="http://purl.org/dc/elements/1.1/"
   xmlns:cc="http://creativecommons.org/ns#"
   xmlns:rdf="http://www.w3.org/1999/02/22-rdf-syntax-ns#"
   xmlns:svg="http://www.w3.org/2000/svg"
   xmlns="http://www.w3.org/2000/svg"
   xmlns:sodipodi="http://sodipodi.sourceforge.net/DTD/sodipodi-0.dtd"
   xmlns:inkscape="http://www.inkscape.org/namespaces/inkscape"
   id="svg97"
   stroke-miterlimit="10"
   stroke-linecap="square"
   stroke="none"
   fill="none"
   viewBox="0.0 0.0 369.0 801.0"
   version="1.1"
   sodipodi:docname="BombSideNV.svg"
   inkscape:version="1.0 (4035a4fb49, 2020-05-01)">
  <sodipodi:namedview
     inkscape:document-rotation="0"
     pagecolor="#ffffff"
     bordercolor="#666666"
     borderopacity="1"
     objecttolerance="10"
     gridtolerance="10"
     guidetolerance="10"
     inkscape:pageopacity="0"
     inkscape:pageshadow="2"
     inkscape:window-width="1920"
     inkscape:window-height="1017"
     id="namedview66"
     showgrid="false"
     inkscape:zoom="1.0611735"
     inkscape:cx="184.5"
     inkscape:cy="400.5"
     inkscape:window-x="-8"
     inkscape:window-y="-8"
     inkscape:window-maximized="1"
     inkscape:current-layer="svg97" />
  <metadata
     id="metadata103">
    <rdf:RDF>
      <cc:Work
         rdf:about="">
        <dc:format>image/svg+xml</dc:format>
        <dc:type
           rdf:resource="http://purl.org/dc/dcmitype/StillImage" />
        <dc:title />
      </cc:Work>
    </rdf:RDF>
  </metadata>
  <defs
     id="defs101" />
  <clipPath
     id="p.0">
    <path
       id="path2"
       clip-rule="nonzero"
       d="m0 0l369.0 0l0 801.0l-369.0 0l0 -801.0z" />
  </clipPath>
  <g
     id="g91"
     clip-path="url(#p.0)">
    <path
       id="path5"
       fill-rule="nonzero"
       d="M 0,0 H 369.1076 V 801.916 H 0 Z"
       fill-opacity="0"
       fill="#000000" />
    <path
       id="path7"
       fill-rule="nonzero"
       d="m 248.5753,444.2651 h 101.4803 v 67.55905 H 248.5753 Z"
       fill="#000000" />
    <path
       id="path9"
       fill-rule="nonzero"
       d="m 248.5753,444.2651 h 101.4803 v 67.55905 H 248.5753 Z"
       stroke-linecap="butt"
       stroke-linejoin="round"
       stroke-width="2"
       stroke="#000000" />
    <path
       id="path11"
       fill-rule="nonzero"
       d="m 289.4047,109.25535 h 67.3071 v 208.0315 h -67.3071 z"
       fill="#ffffff" />
    <path
       id="path13"
       fill-rule="nonzero"
       d="m 289.4047,109.25535 h 67.3071 v 208.0315 h -67.3071 z"
       stroke-linecap="butt"
       stroke-linejoin="round"
       stroke-width="2"
       stroke="#000000" />
    <path
       id="path15"
       fill-rule="nonzero"
       d="M 5.589649,165.38321 H 53.306183 V 273.09973 H 5.589649 Z"
       fill="#ffffff" />
    <path
       id="path17"
       fill-rule="nonzero"
       d="M 5.589649,165.38321 H 53.306183 V 273.09973 H 5.589649 Z"
       stroke-linecap="butt"
       stroke-linejoin="round"
       stroke-width="2"
       stroke="#000000" />
    <path
       id="path19"
       fill-rule="nonzero"
       d="m 278.36172,66.32809 h 68.82806 v 0 c 9.01667,0 16.32611,7.042313 16.32611,15.729446 0,8.687134 -7.30944,15.729446 -16.32611,15.729446 h -68.82806 v 0 c -9.01666,0 -16.32614,-7.042313 -16.32614,-15.729446 0,-8.687134 7.30948,-15.729446 16.32614,-15.729446 z"
       fill="#ffffff" />
    <path
       id="path21"
       fill-rule="nonzero"
       d="m 278.36172,66.32809 h 68.82806 v 0 c 9.01667,0 16.32611,7.042313 16.32611,15.729446 0,8.687134 -7.30944,15.729446 -16.32611,15.729446 h -68.82806 v 0 c -9.01666,0 -16.32614,-7.042313 -16.32614,-15.729446 0,-8.687134 7.30948,-15.729446 16.32614,-15.729446 z"
       stroke-linecap="butt"
       stroke-linejoin="round"
       stroke-width="2"
       stroke="#000000" />
    <path
       id="path23"
       fill-rule="nonzero"
       d="m 12.574803,486.2047 h 67.30708 v 208.0315 h -67.30708 z"
       fill="#ffffff" />
    <path
       id="path25"
       fill-rule="nonzero"
       d="m 12.574803,486.2047 h 67.30708 v 208.0315 h -67.30708 z"
       stroke-linecap="butt"
       stroke-linejoin="round"
       stroke-width="2"
       stroke="#000000" />
    <path
       id="path27"
       fill-rule="nonzero"
       d="m 243.86876,46.650917 h 92.15749 V 384.32022 h -92.15749 z"
       fill="#ffffff" />
    <path
       id="path29"
       fill-rule="nonzero"
       d="m 243.86876,46.650917 h 92.15749 V 384.32022 h -92.15749 z"
       stroke-linecap="butt"
       stroke-linejoin="round"
       stroke-width="2"
       stroke="#000000" />
    <path
       id="path31"
       fill-rule="nonzero"
       d="M 22.658957,122.89764 H 101.74557 V 304.53543 H 22.658957 Z"
       fill="#000000" />
    <path
       id="path33"
       fill-rule="nonzero"
       d="M 22.658957,122.89764 H 101.74557 V 304.53543 H 22.658957 Z"
       stroke-linecap="butt"
       stroke-linejoin="round"
       stroke-width="2"
       stroke="#000000" />
    <path
       id="path35"
       fill-rule="nonzero"
       d="m 22.689058,66.32809 h 68.82809 v 0 c 9.016662,0 16.326122,7.042313 16.326122,15.729446 0,8.687134 -7.30946,15.729446 -16.326122,15.729446 h -68.82809 v 0 c -9.016665,0 -16.326115,-7.042313 -16.326115,-15.729446 0,-8.687134 7.309451,-15.729446 16.326115,-15.729446 z"
       fill="#ffffff" />
    <path
       id="path37"
       fill-rule="nonzero"
       d="m 22.689058,66.32809 h 68.82809 v 0 c 9.016662,0 16.326122,7.042313 16.326122,15.729446 0,8.687134 -7.30946,15.729446 -16.326122,15.729446 h -68.82809 v 0 c -9.016665,0 -16.326115,-7.042313 -16.326115,-15.729446 0,-8.687134 7.309451,-15.729446 16.326115,-15.729446 z"
       stroke-linecap="butt"
       stroke-linejoin="round"
       stroke-width="2"
       stroke="#000000" />
    <path
       id="path39"
       fill-rule="nonzero"
       d="m 22.689058,443.84253 h 68.82809 v 0 c 9.016662,0 16.326122,7.0423 16.326122,15.72943 0,8.68713 -7.30946,15.72946 -16.326122,15.72946 h -68.82809 v 0 c -9.016665,0 -16.326115,-7.04233 -16.326115,-15.72946 0,-8.68713 7.309451,-15.72943 16.326115,-15.72943 z"
       fill="#ffffff" />
    <path
       id="path41"
       fill-rule="nonzero"
       d="m 22.689058,443.84253 h 68.82809 v 0 c 9.016662,0 16.326122,7.0423 16.326122,15.72943 0,8.68713 -7.30946,15.72946 -16.326122,15.72946 h -68.82809 v 0 c -9.016665,0 -16.326115,-7.04233 -16.326115,-15.72946 0,-8.68713 7.309451,-15.72943 16.326115,-15.72943 z"
       stroke-linecap="butt"
       stroke-linejoin="round"
       stroke-width="2"
       stroke="#000000" />
    <path
       id="path43"
       fill-rule="nonzero"
       d="M 31.853674,46.650917 H 86.814306 V 384.32022 H 31.853674 Z"
       fill="#ffffff" />
    <path
       id="path45"
       fill-rule="nonzero"
       d="M 31.853674,46.650917 H 86.814306 V 384.32022 H 31.853674 Z"
       stroke-linecap="butt"
       stroke-linejoin="round"
       stroke-width="2"
       stroke="#000000" />
    <path
       id="path47"
       fill-rule="nonzero"
       d="m 278.36368,443.84253 h 68.82809 v 0 c 9.01667,0 16.32611,7.0423 16.32611,15.72943 0,8.68713 -7.30944,15.72946 -16.32611,15.72946 h -68.82809 v 0 c -9.01666,0 -16.32611,-7.04233 -16.32611,-15.72946 0,-8.68713 7.30945,-15.72943 16.32611,-15.72943 z"
       fill="#ffffff" />
    <path
       id="path49"
       fill-rule="nonzero"
       d="m 278.36368,443.84253 h 68.82809 v 0 c 9.01667,0 16.32611,7.0423 16.32611,15.72943 0,8.68713 -7.30944,15.72946 -16.32611,15.72946 h -68.82809 v 0 c -9.01666,0 -16.32611,-7.04233 -16.32611,-15.72946 0,-8.68713 7.30945,-15.72943 16.32611,-15.72943 z"
       stroke-linecap="butt"
       stroke-linejoin="round"
       stroke-width="2"
       stroke="#000000" />
    <path
       id="path51"
       fill-rule="nonzero"
       d="M 251.84662,615.33795 H 358.49228 V 660.1568 H 251.84662 Z"
       fill="#ffffff" />
    <path
       id="path53"
       fill-rule="nonzero"
       d="M 251.84662,615.33795 H 358.49228 V 660.1568 H 251.84662 Z"
       stroke-linecap="butt"
       stroke-linejoin="round"
       stroke-width="2"
       stroke="#000000" />
    <path
       id="path55"
       fill-rule="nonzero"
       d="m 251.84662,544.1022 h 106.64566 v 44.81891 H 251.84662 Z"
       fill="#ffffff" />
    <path
       id="path57"
       fill-rule="nonzero"
       d="m 251.84662,544.1022 h 106.64566 v 44.81891 H 251.84662 Z"
       stroke-linecap="butt"
       stroke-linejoin="round"
       stroke-width="2"
       stroke="#000000" />
    <path
       id="path59"
       fill-rule="nonzero"
       d="m 251.84662,689.47974 h 106.64566 v 44.81891 H 251.84662 Z"
       fill="#ffffff" />
    <path
       id="path61"
       fill-rule="nonzero"
       d="m 251.84662,689.47974 h 106.64566 v 44.81891 H 251.84662 Z"
       stroke-linecap="butt"
       stroke-linejoin="round"
       stroke-width="2"
       stroke="#000000" />
    <path
       id="path63"
       fill-rule="nonzero"
       d="m 6.361959,517.22833 h 24.88189"
       fill-opacity="0"
       fill="#000000" />
    <path
       id="path65"
       fill-rule="nonzero"
       d="m 6.361959,517.22833 h 24.88189"
       stroke-linecap="butt"
       stroke-linejoin="round"
       stroke-width="2"
       stroke="#000000" />
    <path
       id="path67"
       fill-rule="nonzero"
       d="m 6.361959,569.0379 h 24.88189"
       fill-opacity="0"
       fill="#000000" />
    <path
       id="path69"
       fill-rule="nonzero"
       d="m 6.361959,569.0379 h 24.88189"
       stroke-linecap="butt"
       stroke-linejoin="round"
       stroke-width="2"
       stroke="#000000" />
    <path
       id="path71"
       fill-rule="nonzero"
       d="m 6.361959,616.8954 h 24.88189"
       fill-opacity="0"
       fill="#000000" />
    <path
       id="path73"
       fill-rule="nonzero"
       d="m 6.361959,616.8954 h 24.88189"
       stroke-linecap="butt"
       stroke-linejoin="round"
       stroke-width="2"
       stroke="#000000" />
    <path
       id="path75"
       fill-rule="nonzero"
       d="M 6.361959,673.9764 H 31.999753"
       fill-opacity="0"
       fill="#000000" />
    <path
       id="path77"
       fill-rule="nonzero"
       d="M 6.361959,673.9764 H 31.999753"
       stroke-linecap="butt"
       stroke-linejoin="round"
       stroke-width="2"
       stroke="#000000" />
    <path
       id="path79"
       fill-rule="nonzero"
       d="m 31.85023,423.8084 h 304.1575 V 761.47765 H 31.85023 Z"
       fill="#ffffff" />
    <path
       id="path81"
       fill-rule="nonzero"
       d="m 31.85023,423.8084 h 304.1575 V 761.47765 H 31.85023 Z"
       stroke-linecap="butt"
       stroke-linejoin="round"
       stroke-width="2"
       stroke="#000000" />
    <path
       id="path83"
       fill-rule="nonzero"
       d="M 56.01132,0.9422572 H 312.60974 V 800.97376 H 56.01132 Z"
       fill="#ffffff" />
    <path
       id="path85"
       fill-rule="nonzero"
       d="M 56.01132,0.9422572 H 312.60974 V 800.97376 H 56.01132 Z"
       stroke-linecap="butt"
       stroke-linejoin="round"
       stroke-width="2"
       stroke="#000000" />
    <path
       id="path87"
       fill-rule="nonzero"
       d="M 289.4042,31.199474 V 346.85303 H 221.84513 V 31.199474 Z"
       fill-opacity="0"
       fill="#000000" />
    <path
       id="path89"
       fill-rule="nonzero"
       d="M 289.4042,31.199474 V 386.85303 H 221.84513 V 31.199474 Z"
       stroke-linecap="butt"
       stroke-linejoin="round"
       stroke-width="2"
       stroke="#000000" />
  </g>
  <g
     style="font-size:44.0957px;line-height:1.25;font-family:Cabin;-inkscape-font-specification:Cabin;text-align:center;text-anchor:middle;fill:#000000;stroke-width:0.551197"
     id="text893"
     transform="rotate(90)"
     aria-label="[SRL NMBR]">
    <path
       id="path877"
       style="stroke-width:0.551197"
       d="M 106.90854,-235.72977 H 95.575942 v -39.0247 h 11.332598 v 3.61585 h -7.231698 v 31.793 h 7.231698 z" />
    <path
       id="path879"
       style="stroke-width:0.551197"
       d="m 119.47926,-241.06535 q -6.48207,0 -10.14201,-2.0725 l 0.57324,-5.42377 q 3.92452,3.13079 9.65696,3.13079 3.0426,0 4.89462,-1.0142 1.85202,-1.0142 1.85202,-3.26308 0,-1.0142 -0.44096,-1.80792 -0.44095,-0.79373 -1.19058,-1.41107 -0.70553,-0.61734 -1.67564,-1.05829 -0.92601,-0.48506 -1.9843,-0.83782 l -4.89463,-1.63154 -2.16069,-0.88192 q -0.83781,-0.35276 -1.76382,-0.88191 -0.88192,-0.57324 -1.67564,-1.36697 -0.74963,-0.79372 -1.23468,-1.80792 -0.48505,-1.0142 -0.48505,-2.29298 0,-1.67563 0.52915,-3.35127 0.57324,-1.71973 1.85202,-3.0426 1.32287,-1.36697 3.43946,-2.20479 2.16069,-0.88191 5.33558,-0.88191 1.36697,0 2.82212,0.22048 1.45516,0.17638 2.77803,0.48505 1.32287,0.30867 2.38117,0.70553 1.10239,0.39686 1.76383,0.79372 l -0.48505,4.89462 q -5.37968,-2.77802 -8.90734,-2.77802 -1.23467,0 -2.42526,0.26457 -1.14649,0.22048 -2.0725,0.70553 -0.88191,0.48505 -1.45515,1.27878 -0.52915,0.79372 -0.52915,1.85202 0,1.36696 0.70553,2.16069 0.70553,0.74962 2.0725,1.36696 1.36696,0.57325 3.39537,1.19059 2.07249,0.61734 4.76233,1.71973 1.19058,0.48505 2.38117,1.10239 1.19058,0.61734 2.11659,1.58745 0.97011,0.9701 1.58745,2.38116 0.61734,1.41107 0.61734,3.43947 0,1.41106 -0.44096,2.95441 -0.44096,1.54335 -1.76383,2.82212 -1.27877,1.27878 -3.65994,2.1166 -2.33707,0.83782 -6.1293,0.83782 z" />
    <path
       id="path881"
       style="stroke-width:0.551197"
       d="m 159.03241,-241.68269 h -4.98281 l -6.70255,-11.86175 h -6.21749 v 11.86175 h -4.80644 v -30.86699 h 10.45068 q 5.07101,0 7.84904,2.07249 2.77803,2.0725 2.77803,6.92303 0,5.90882 -5.51196,8.77504 z m -12.74366,-27.03067 h -5.15919 v 10.71526 h 5.82063 q 2.55755,0 4.0568,-1.32287 1.49926,-1.32287 1.49926,-4.1009 0,-5.29149 -6.2175,-5.29149 z" />
    <path
       id="path883"
       style="stroke-width:0.551197"
       d="m 181.53775,-241.68269 h -18.34381 v -30.86699 h 4.67414 v 26.50151 h 13.66967 z" />
    <path
       id="path885"
       style="stroke-width:0.551197"
       d="m 219.35257,-241.68269 h -3.92452 l -15.52168,-23.28253 v 23.28253 h -4.67415 v -30.86699 h 4.89463 l 14.50748,22.00375 v -22.00375 h 4.71824 z" />
    <path
       id="path887"
       style="stroke-width:0.551197"
       d="m 256.62309,-241.68269 h -4.93872 l -2.82213,-22.40062 -8.2018,15.3894 -8.33408,-15.3894 -2.82213,22.40062 h -4.89462 l 4.18909,-30.86699 h 3.92452 l 7.89313,14.86025 7.84903,-14.86025 h 3.96861 z" />
    <path
       id="path889"
       style="stroke-width:0.551197"
       d="m 272.91645,-241.68269 h -11.02393 v -30.86699 h 7.45218 q 2.86622,0 5.02691,0.30867 2.20478,0.30867 3.65994,1.19058 1.49925,0.83782 2.24888,2.33707 0.74963,1.49926 0.74963,3.88042 0,2.20479 -0.52915,3.70404 -0.48505,1.49926 -2.0284,2.99851 2.82212,1.0583 4.01271,2.82213 1.23468,1.71973 1.23468,4.49776 0,9.12781 -10.80345,9.12781 z m -2.0284,-26.76609 h -4.32138 v 8.59866 h 5.33558 q 0.83782,0 1.63154,-0.13229 0.79372,-0.13229 1.41106,-0.57324 0.66144,-0.48506 1.0583,-1.36697 0.39686,-0.88191 0.39686,-2.38117 0,-2.51345 -1.36697,-3.30717 -1.36696,-0.83782 -4.14499,-0.83782 z m 1.9843,12.61137 h -6.30568 v 10.00972 h 4.76233 q 3.83633,0 5.68835,-0.9701 1.85202,-0.97011 1.85202,-3.88043 0,-5.15919 -5.99702,-5.15919 z" />
    <path
       id="path891"
       style="stroke-width:0.551197"
       d="m 311.38649,-241.68269 h -4.98281 l -6.70255,-11.86175 h -6.21749 v 11.86175 h -4.80643 v -30.86699 h 10.45068 q 5.071,0 7.84903,2.07249 2.77803,2.0725 2.77803,6.92303 0,5.90882 -5.51196,8.77504 z m -12.74365,-27.03067 h -5.1592 v 10.71526 h 5.82063 q 2.55755,0 4.05681,-1.32287 1.49925,-1.32287 1.49925,-4.1009 0,-5.29149 -6.21749,-5.29149 z" />
    <path
       id="path893"
       style="stroke-width:0.551197"
       d="m 312.24085,-274.75447 h 11.33259 v 39.0247 h -11.33259 v -3.61585 h 7.23169 v -31.793 h -7.23169 z" />
  </g>
</svg>
