<?xml version="1.0" encoding="UTF-8" standalone="no"?>
<svg
   xmlns:dc="http://purl.org/dc/elements/1.1/"
   xmlns:cc="http://creativecommons.org/ns#"
   xmlns:rdf="http://www.w3.org/1999/02/22-rdf-syntax-ns#"
   xmlns:svg="http://www.w3.org/2000/svg"
   xmlns="http://www.w3.org/2000/svg"
   xmlns:sodipodi="http://sodipodi.sourceforge.net/DTD/sodipodi-0.dtd"
   xmlns:inkscape="http://www.inkscape.org/namespaces/inkscape"
   inkscape:version="1.0 (4035a4fb49, 2020-05-01)"
   sodipodi:docname="ButtonComponentNV.svg"
   version="1.1"
   viewBox="0.0 0.0 348.0 348.0"
   fill="none"
   stroke="none"
   stroke-linecap="square"
   stroke-miterlimit="10"
   id="svg69">
  <sodipodi:namedview
     inkscape:current-layer="svg69"
     inkscape:window-maximized="1"
     inkscape:window-y="-8"
     inkscape:window-x="-8"
     inkscape:cy="174"
     inkscape:cx="174"
     inkscape:zoom="2.4425287"
     showgrid="false"
     id="namedview44"
     inkscape:window-height="1017"
     inkscape:window-width="1920"
     inkscape:pageshadow="2"
     inkscape:pageopacity="0"
     guidetolerance="10"
     gridtolerance="10"
     objecttolerance="10"
     borderopacity="1"
     bordercolor="#666666"
     pagecolor="#ffffff" />
  <metadata
     id="metadata75">
    <rdf:RDF>
      <cc:Work
         rdf:about="">
        <dc:format>image/svg+xml</dc:format>
        <dc:type
           rdf:resource="http://purl.org/dc/dcmitype/StillImage" />
        <dc:title></dc:title>
      </cc:Work>
    </rdf:RDF>
  </metadata>
  <defs
     id="defs73" />
  <clipPath
     id="p.0">
    <path
       d="m0 0l348.0 0l0 348.0l-348.0 0l0 -348.0z"
       clip-rule="nonzero"
       id="path2" />
  </clipPath>
  <g
     clip-path="url(#p.0)"
     id="g63">
    <path
       fill="#000000"
       fill-opacity="0"
       d="M 0,0 H 348 V 348 H 0 Z"
       fill-rule="nonzero"
       id="path5" />
    <path
       fill="#ffffff"
       d="M -6,0 H 342 V 347.9685 H -6 Z"
       fill-rule="nonzero"
       id="path7" />
    <path
       fill="#000000"
       fill-opacity="0"
       d="m 5.07874,5.7758217 h 336.9134 V 343.44512 H 5.07874 Z"
       fill-rule="nonzero"
       id="path9" />
    <path
       stroke="#000000"
       stroke-width="2"
       stroke-linejoin="round"
       stroke-linecap="butt"
       d="m 5.07874,5.7758217 h 336.9134 V 343.44512 H 5.07874 Z"
       fill-rule="nonzero"
       id="path11" />
    <path
       fill="#ffffff"
       d="M 17.036913,71.17821 H 242.42274 V 306.51679 H 17.036913 Z"
       fill-rule="nonzero"
       id="path13" />
    <path
       stroke="#000000"
       stroke-width="2"
       stroke-linejoin="round"
       stroke-linecap="butt"
       d="M 17.036913,71.17821 H 242.42274 V 306.51679 H 17.036913 Z"
       fill-rule="nonzero"
       id="path15" />
    <path
       fill="#000000"
       d="m 273.45645,109.96049 h 46.2677 v 196.56694 h -46.2677 z"
       fill-rule="nonzero"
       id="path17" />
    <path
       stroke="#000000"
       stroke-width="2"
       stroke-linejoin="round"
       stroke-linecap="butt"
       d="m 273.45645,109.96049 h 46.2677 v 196.56694 h -46.2677 z"
       fill-rule="nonzero"
       id="path19" />
    <path
       fill="#ffffff"
       d="m 282.73444,40.553925 v 0 c 0,-8.375591 6.96603,-15.165352 15.55905,-15.165352 v 0 c 4.12653,0 8.08402,1.597773 11.00192,4.441828 2.91788,2.844057 4.55713,6.701422 4.55713,10.723524 v 0 c 0,8.375595 -6.966,15.165356 -15.55905,15.165356 v 0 c -8.59302,0 -15.55905,-6.789761 -15.55905,-15.165356 z"
       fill-rule="nonzero"
       id="path21" />
    <path
       stroke="#000000"
       stroke-width="2"
       stroke-linejoin="round"
       stroke-linecap="butt"
       d="m 282.73444,40.553925 v 0 c 0,-8.375591 6.96603,-15.165352 15.55905,-15.165352 v 0 c 4.12653,0 8.08402,1.597773 11.00192,4.441828 2.91788,2.844057 4.55713,6.701422 4.55713,10.723524 v 0 c 0,8.375595 -6.966,15.165356 -15.55905,15.165356 v 0 c -8.59302,0 -15.55905,-6.789761 -15.55905,-15.165356 z"
       fill-rule="nonzero"
       id="path23" />
    <path
       fill="#ffffff"
       d="m 31.55643,188.84772 v 0 c 0,-54.95017 43.953648,-99.49606 98.17323,-99.49606 v 0 c 26.03715,0 51.00789,10.48259 69.41894,29.14172 18.41106,18.65914 28.75428,43.96634 28.75428,70.35434 v 0 c 0,54.95017 -43.95365,99.49606 -98.17322,99.49606 v 0 c -54.219583,0 -98.173233,-44.5459 -98.173233,-99.49606 z"
       fill-rule="nonzero"
       id="path25" />
    <path
       stroke="#000000"
       stroke-width="2"
       stroke-linejoin="round"
       stroke-linecap="butt"
       d="m 31.55643,188.84772 v 0 c 0,-54.95017 43.953648,-99.49606 98.17323,-99.49606 v 0 c 26.03715,0 51.00789,10.48259 69.41894,29.14172 18.41106,18.65914 28.75428,43.96634 28.75428,70.35434 v 0 c 0,54.95017 -43.95365,99.49606 -98.17322,99.49606 v 0 c -54.219583,0 -98.173233,-44.5459 -98.173233,-99.49606 z"
       fill-rule="nonzero"
       id="path27" />
    <path
       fill="#000000"
       fill-opacity="0"
       d="m 45.42257,153.48425 h 202.51968 v 70.67717 H 45.42257 Z"
       fill-rule="nonzero"
       id="path29" />
    <path
       fill="#000000"
       fill-opacity="0"
       d="M 40.969852,95.99732 H 218.89111 v 185.7008 H 40.969852 Z"
       fill-rule="nonzero"
       id="path31" />
    <path
       stroke="#000000"
       stroke-width="1"
       stroke-linejoin="round"
       stroke-linecap="butt"
       d="M 40.969852,95.99732 H 218.89111 v 185.7008 H 40.969852 Z"
       fill-rule="nonzero"
       id="path33" />
    <path
       fill="#000000"
       fill-opacity="0"
       d="M 17.708662,72.89501 41.173229,95.950132"
       fill-rule="nonzero"
       id="path35" />
    <path
       stroke="#000000"
       stroke-width="1"
       stroke-linejoin="round"
       stroke-linecap="butt"
       d="M 17.708662,72.89501 41.173229,95.950132"
       fill-rule="nonzero"
       id="path37" />
    <path
       fill="#000000"
       fill-opacity="0"
       d="m 219.0971,281.69553 23.08662,24.28348"
       fill-rule="nonzero"
       id="path39" />
    <path
       stroke="#000000"
       stroke-width="1"
       stroke-linejoin="round"
       stroke-linecap="butt"
       d="m 219.0971,281.69553 23.08662,24.28348"
       fill-rule="nonzero"
       id="path41" />
    <path
       fill="#000000"
       fill-opacity="0"
       d="M 242.15749,72.89501 219.51181,95.950132"
       fill-rule="nonzero"
       id="path43" />
    <path
       stroke="#000000"
       stroke-width="1"
       stroke-linejoin="round"
       stroke-linecap="butt"
       d="M 242.15749,72.89501 219.51181,95.950132"
       fill-rule="nonzero"
       id="path45" />
    <path
       fill="#000000"
       fill-opacity="0"
       d="M 40.76378,281.70078 18.11811,304.75592"
       fill-rule="nonzero"
       id="path47" />
    <path
       stroke="#000000"
       stroke-width="1"
       stroke-linejoin="round"
       stroke-linecap="butt"
       d="M 40.76378,281.70078 18.11811,304.75592"
       fill-rule="nonzero"
       id="path49" />
    <path
       fill="#000000"
       fill-opacity="0"
       d="M 55.18635,58.892387 H 81.139105 V 71.17585 H 55.18635 Z"
       fill-rule="nonzero"
       id="path51" />
    <path
       stroke="#000000"
       stroke-width="2"
       stroke-linejoin="round"
       stroke-linecap="butt"
       d="M 55.18635,58.892387 H 81.139105 V 71.17585 H 55.18635 Z"
       fill-rule="nonzero"
       id="path53" />
    <path
       fill="#000000"
       fill-opacity="0"
       d="m 180.33595,58.892387 h 25.95276 V 71.17585 h -25.95276 z"
       fill-rule="nonzero"
       id="path55" />
    <path
       stroke="#000000"
       stroke-width="2"
       stroke-linejoin="round"
       stroke-linecap="butt"
       d="m 180.33595,58.892387 h 25.95276 V 71.17585 h -25.95276 z"
       fill-rule="nonzero"
       id="path57" />
    <path
       fill="#000000"
       fill-opacity="0"
       d="m 84.14173,63.422573 h 92.25196 v 7.748028 H 84.14173 Z"
       fill-rule="nonzero"
       id="path59" />
    <path
       stroke="#000000"
       stroke-width="2"
       stroke-linejoin="round"
       stroke-linecap="butt"
       d="m 84.14173,63.422573 h 92.25196 v 7.748028 H 84.14173 Z"
       fill-rule="nonzero"
       id="path61" />
  </g>
  <g
     style="font-size:50.8554px;line-height:1.25;font-family:Cabin;-inkscape-font-specification:Cabin;text-align:center;text-anchor:middle;fill:#000000;stroke-width:0.635693"
     id="text871"
     aria-label="[ TXT ]">
    <path
       id="path873"
       style="stroke-width:0.635693"
       d="M 75.700577,211.00235 H 62.630739 v -45.00703 h 13.069838 v 4.17014 h -8.340285 v 36.66675 h 8.340285 z" />
    <path
       id="path875"
       style="stroke-width:0.635693"
       d="m 114.23308,173.57278 h -10.27279 v 30.56409 H 98.51876 V 173.57278 H 88.296824 v -5.03469 h 25.936256 z" />
    <path
       id="path877"
       style="stroke-width:0.635693"
       d="m 146.11067,204.13687 h -5.95008 l -9.71338,-14.03609 -8.95055,14.03609 h -5.95008 L 127.70102,186.38834 115.75,168.53809 h 6.25521 l 8.84884,13.42583 9.05226,-13.42583 h 5.89923 l -12.35786,17.18913 z" />
    <path
       id="path879"
       style="stroke-width:0.635693"
       d="m 173.13396,173.57278 h -10.27279 v 30.56409 h -5.44152 v -30.56409 h -10.22194 v -5.03469 h 25.93625 z" />
    <path
       id="path881"
       style="stroke-width:0.635693"
       d="m 185.76835,165.99532 h 13.06983 v 45.00703 h -13.06983 v -4.17014 h 8.34028 v -36.66675 h -8.34028 z" />
  </g>
</svg>
