<?xml version="1.0" encoding="UTF-8" standalone="no"?>
<svg
   xmlns:dc="http://purl.org/dc/elements/1.1/"
   xmlns:cc="http://creativecommons.org/ns#"
   xmlns:rdf="http://www.w3.org/1999/02/22-rdf-syntax-ns#"
   xmlns:svg="http://www.w3.org/2000/svg"
   xmlns="http://www.w3.org/2000/svg"
   xmlns:sodipodi="http://sodipodi.sourceforge.net/DTD/sodipodi-0.dtd"
   xmlns:inkscape="http://www.inkscape.org/namespaces/inkscape"
   inkscape:version="1.0 (4035a4fb49, 2020-05-01)"
   sodipodi:docname="NeedyVentComponentNV.svg"
   version="1.1"
   viewBox="0.0 0.0 348.0 348.0"
   fill="none"
   stroke="none"
   stroke-linecap="square"
   stroke-miterlimit="10"
   id="svg95">
  <sodipodi:namedview
     inkscape:current-layer="svg95"
     inkscape:window-maximized="1"
     inkscape:window-y="-8"
     inkscape:window-x="-8"
     inkscape:cy="174"
     inkscape:cx="174"
     inkscape:zoom="2.4425287"
     showgrid="false"
     id="namedview57"
     inkscape:window-height="1017"
     inkscape:window-width="1920"
     inkscape:pageshadow="2"
     inkscape:pageopacity="0"
     guidetolerance="10"
     gridtolerance="10"
     objecttolerance="10"
     borderopacity="1"
     bordercolor="#666666"
     pagecolor="#ffffff" />
  <metadata
     id="metadata101">
    <rdf:RDF>
      <cc:Work
         rdf:about="">
        <dc:format>image/svg+xml</dc:format>
        <dc:type
           rdf:resource="http://purl.org/dc/dcmitype/StillImage" />
        <dc:title></dc:title>
      </cc:Work>
    </rdf:RDF>
  </metadata>
  <defs
     id="defs99" />
  <clipPath
     id="p.0">
    <path
       d="m0 0l348.0 0l0 348.0l-348.0 0l0 -348.0z"
       clip-rule="nonzero"
       id="path2" />
  </clipPath>
  <g
     clip-path="url(#p.0)"
     id="g81">
    <path
       fill="#000000"
       fill-opacity="0"
       d="M 0,0 H 348 V 348 H 0 Z"
       fill-rule="nonzero"
       id="path5" />
    <path
       fill="#ffffff"
       d="M -6,0 H 348.01575 V 347.9685 H -6 Z"
       fill-rule="nonzero"
       id="path7" />
    <path
       fill="#000000"
       fill-opacity="0"
       d="m 5.07874,5.7758217 h 336.9134 V 343.44512 H 5.07874 Z"
       fill-rule="nonzero"
       id="path9" />
    <path
       stroke="#000000"
       stroke-width="2"
       stroke-linejoin="round"
       stroke-linecap="butt"
       d="m 5.07874,5.7758217 h 336.9134 V 343.44512 H 5.07874 Z"
       fill-rule="nonzero"
       id="path11" />
    <path
       fill="#000000"
       d="m 133.84251,15.666667 h 74.33072 v 56.881886 h -74.33072 z"
       fill-rule="nonzero"
       id="path13" />
    <path
       fill="#ffffff"
       d="m 154.53912,44.089794 q 0,-4.0625 0.82812,-6.53125 0.84375,-2.484375 2.48438,-3.828125 1.65625,-1.34375 4.15625,-1.34375 1.84375,0 3.23437,0.75 1.39063,0.734375 2.29688,2.140625 0.90625,1.390625 1.42187,3.40625 0.51563,2 0.51563,5.40625 0,4.03125 -0.82813,6.515625 -0.82812,2.46875 -2.48437,3.828125 -1.64063,1.34375 -4.15625,1.34375 -3.3125,0 -5.20313,-2.375 -2.26562,-2.859375 -2.26562,-9.3125 z m 2.89062,0 q 0,5.640625 1.3125,7.515625 1.32813,1.859375 3.26563,1.859375 1.9375,0 3.25,-1.875 1.32812,-1.875 1.32812,-7.5 0,-5.65625 -1.32812,-7.515625 -1.3125,-1.859375 -3.28125,-1.859375 -1.9375,0 -3.09375,1.640625 -1.45313,2.09375 -1.45313,7.734375 z m 14.90625,0 q 0,-4.0625 0.82813,-6.53125 0.84375,-2.484375 2.48437,-3.828125 1.65625,-1.34375 4.15625,-1.34375 1.84375,0 3.23438,0.75 1.39062,0.734375 2.29687,2.140625 0.90625,1.390625 1.42188,3.40625 0.51562,2 0.51562,5.40625 0,4.03125 -0.82812,6.515625 -0.82813,2.46875 -2.48438,3.828125 -1.64062,1.34375 -4.15625,1.34375 -3.3125,0 -5.20312,-2.375 -2.26563,-2.859375 -2.26563,-9.3125 z m 2.89063,0 q 0,5.640625 1.3125,7.515625 1.32812,1.859375 3.26562,1.859375 1.9375,0 3.25,-1.875 1.32813,-1.875 1.32813,-7.5 0,-5.65625 -1.32813,-7.515625 -1.3125,-1.859375 -3.28125,-1.859375 -1.9375,0 -3.09375,1.640625 -1.45312,2.09375 -1.45312,7.734375 z"
       fill-rule="nonzero"
       id="path15" />
    <path
       fill="#ffffff"
       d="M 15.262467,17.706038 H 125.15223 v 54.83464 H 15.262467 Z"
       fill-rule="nonzero"
       id="path17" />
    <path
       stroke="#000000"
       stroke-width="2"
       stroke-linejoin="round"
       stroke-linecap="butt"
       d="M 15.262467,17.706038 H 125.15223 v 54.83464 H 15.262467 Z"
       fill-rule="nonzero"
       id="path19" />
    <path
       fill="#000000"
       fill-opacity="0"
       d="M 15.262467,72.65354 54.947507,18.5748"
       fill-rule="nonzero"
       id="path21" />
    <path
       stroke="#000000"
       stroke-width="2"
       stroke-linejoin="round"
       stroke-linecap="butt"
       d="M 15.262467,72.65354 54.947507,18.5748"
       fill-rule="nonzero"
       id="path23" />
    <path
       fill="#000000"
       fill-opacity="0"
       d="M 37.56649,72.65354 77.251533,18.5748"
       fill-rule="nonzero"
       id="path25" />
    <path
       stroke="#000000"
       stroke-width="2"
       stroke-linejoin="round"
       stroke-linecap="butt"
       d="M 37.56649,72.65354 77.251533,18.5748"
       fill-rule="nonzero"
       id="path27" />
    <path
       fill="#000000"
       fill-opacity="0"
       d="M 59.870514,72.65354 99.555557,18.5748"
       fill-rule="nonzero"
       id="path29" />
    <path
       stroke="#000000"
       stroke-width="2"
       stroke-linejoin="round"
       stroke-linecap="butt"
       d="M 59.870514,72.65354 99.555557,18.5748"
       fill-rule="nonzero"
       id="path31" />
    <path
       fill="#000000"
       fill-opacity="0"
       d="M 82.17454,72.65354 121.85958,18.5748"
       fill-rule="nonzero"
       id="path33" />
    <path
       stroke="#000000"
       stroke-width="2"
       stroke-linejoin="round"
       stroke-linecap="butt"
       d="M 82.17454,72.65354 121.85958,18.5748"
       fill-rule="nonzero"
       id="path35" />
    <path
       fill="#ffffff"
       d="M 32.97638,83.031494 H 315.02362 V 325.3937 H 32.97638 Z"
       fill-rule="nonzero"
       id="path37" />
    <path
       stroke="#000000"
       stroke-width="2"
       stroke-linejoin="round"
       stroke-linecap="butt"
       d="M 32.97638,83.031494 H 315.02362 V 325.3937 H 32.97638 Z"
       fill-rule="nonzero"
       id="path39" />
    <path
       fill="#ffffff"
       d="m 216.86351,16.633858 h 109.88975 v 54.83465 H 216.86351 Z"
       fill-rule="nonzero"
       id="path41" />
    <path
       stroke="#000000"
       stroke-width="2"
       stroke-linejoin="round"
       stroke-linecap="butt"
       d="m 216.86351,16.633858 h 109.88975 v 54.83465 H 216.86351 Z"
       fill-rule="nonzero"
       id="path43" />
    <path
       fill="#000000"
       fill-opacity="0"
       d="M 216.86351,71.58137 256.54855,17.502627"
       fill-rule="nonzero"
       id="path45" />
    <path
       stroke="#000000"
       stroke-width="2"
       stroke-linejoin="round"
       stroke-linecap="butt"
       d="M 216.86351,71.58137 256.54855,17.502627"
       fill-rule="nonzero"
       id="path47" />
    <path
       fill="#000000"
       fill-opacity="0"
       d="M 239.16754,71.58137 278.85257,17.502627"
       fill-rule="nonzero"
       id="path49" />
    <path
       stroke="#000000"
       stroke-width="2"
       stroke-linejoin="round"
       stroke-linecap="butt"
       d="M 239.16754,71.58137 278.85257,17.502627"
       fill-rule="nonzero"
       id="path51" />
    <path
       fill="#000000"
       fill-opacity="0"
       d="M 261.47156,71.58137 301.15662,17.502627"
       fill-rule="nonzero"
       id="path53" />
    <path
       stroke="#000000"
       stroke-width="2"
       stroke-linejoin="round"
       stroke-linecap="butt"
       d="M 261.47156,71.58137 301.15662,17.502627"
       fill-rule="nonzero"
       id="path55" />
    <path
       fill="#000000"
       fill-opacity="0"
       d="M 283.7756,71.58137 323.46063,17.502627"
       fill-rule="nonzero"
       id="path57" />
    <path
       stroke="#000000"
       stroke-width="2"
       stroke-linejoin="round"
       stroke-linecap="butt"
       d="M 283.7756,71.58137 323.46063,17.502627"
       fill-rule="nonzero"
       id="path59" />
    <path
       fill="#000000"
       d="M 44.490814,88.11811 H 303.48294 V 252.05512 H 44.490814 Z"
       fill-rule="nonzero"
       id="path61" />
    <path
       stroke="#000000"
       stroke-width="1"
       stroke-linejoin="round"
       stroke-linecap="butt"
       d="m 113.77165,267.51697 h 49.25984 v 45.48032 h -49.25984 z"
       fill-rule="nonzero"
       id="path63" />
    <path
       fill="#000000"
       fill-opacity="0"
       d="m 182.79527,267.51697 h 49.25984 v 45.48032 h -49.25984 z"
       fill-rule="nonzero"
       id="path65" />
    <path
       stroke="#000000"
       stroke-width="1"
       stroke-linejoin="round"
       stroke-linecap="butt"
       d="m 182.79527,267.51697 h 49.25984 v 45.48032 h -49.25984 z"
       fill-rule="nonzero"
       id="path67" />
    <path
       fill="#ffffff"
       d="m 260.08136,270.74014 h 36.72443 v 25.63782 h -36.72443 z"
       fill-rule="nonzero"
       id="path69" />
    <path
       stroke="#000000"
       stroke-width="2"
       stroke-linejoin="round"
       stroke-linecap="butt"
       d="m 260.08136,270.74014 h 36.72443 v 25.63782 h -36.72443 z"
       fill-rule="nonzero"
       id="path71" />
    <path
       fill="#ffffff"
       d="m 265.46457,305.50656 v 0 c 0,-2.35699 1.91071,-4.26773 4.2677,-4.26773 v 0 c 1.1319,0 2.21741,0.44965 3.01773,1.25 0.80035,0.80035 1.25,1.88586 1.25,3.01773 v 0 c 0,2.35699 -1.91074,4.26773 -4.26773,4.26773 v 0 c -2.35699,0 -4.2677,-1.91074 -4.2677,-4.26773 z"
       fill-rule="nonzero"
       id="path73" />
    <path
       stroke="#000000"
       stroke-width="2"
       stroke-linejoin="round"
       stroke-linecap="butt"
       d="m 265.46457,305.50656 v 0 c 0,-2.35699 1.91071,-4.26773 4.2677,-4.26773 v 0 c 1.1319,0 2.21741,0.44965 3.01773,1.25 0.80035,0.80035 1.25,1.88586 1.25,3.01773 v 0 c 0,2.35699 -1.91074,4.26773 -4.26773,4.26773 v 0 c -2.35699,0 -4.2677,-1.91074 -4.2677,-4.26773 z"
       fill-rule="nonzero"
       id="path75" />
    <path
       fill="#ffffff"
       d="m 282.8084,305.50656 v 0 c 0,-2.35699 1.91071,-4.26773 4.2677,-4.26773 v 0 c 1.13187,0 2.21738,0.44965 3.01773,1.25 0.80035,0.80035 1.25,1.88586 1.25,3.01773 v 0 c 0,2.35699 -1.91074,4.26773 -4.26773,4.26773 v 0 c -2.35699,0 -4.2677,-1.91074 -4.2677,-4.26773 z"
       fill-rule="nonzero"
       id="path77" />
    <path
       stroke="#000000"
       stroke-width="2"
       stroke-linejoin="round"
       stroke-linecap="butt"
       d="m 282.8084,305.50656 v 0 c 0,-2.35699 1.91071,-4.26773 4.2677,-4.26773 v 0 c 1.13187,0 2.21738,0.44965 3.01773,1.25 0.80035,0.80035 1.25,1.88586 1.25,3.01773 v 0 c 0,2.35699 -1.91074,4.26773 -4.26773,4.26773 v 0 c -2.35699,0 -4.2677,-1.91074 -4.2677,-4.26773 z"
       fill-rule="nonzero"
       id="path79" />
  </g>
  <g
     aria-label="Y"
     id="text89"
     style="font-size:24px;font-family:'DejaVu Sans', sans-serif;text-anchor:middle;fill:#000000">
    <path
       d="m 130.61719,279.50391 h 2.54297 l 4.85156,7.19531 4.8164,-7.19531 h 2.54297 l -6.1875,9.16406 V 297 h -2.3789 v -8.33203 z"
       id="path116" />
  </g>
  <g
     aria-label="N"
     id="text93"
     style="font-size:24px;font-family:'DejaVu Sans', sans-serif;text-anchor:middle;fill:#000000">
    <path
       d="m 201.37891,279.50391 h 3.1875 l 7.75781,14.63671 v -14.63671 h 2.29687 V 297 h -3.1875 l -7.75781,-14.63672 V 297 h -2.29687 z"
       id="path119" />
  </g>
  <g
     style="font-size:49.4676px;line-height:1.25;font-family:Cabin;-inkscape-font-specification:Cabin;text-align:center;text-anchor:middle;fill:#ffffff;stroke-width:0.618345"
     id="text884"
     aria-label="[ TXT ]">
    <path
       id="path886"
       style="stroke-width:0.618345"
       d="m 124.20281,145.08706 h -12.71318 v -43.77883 h 12.71318 v 4.05635 h -8.11269 v 35.66614 h 8.11269 z" />
    <path
       id="path888"
       style="stroke-width:0.618345"
       d="m 161.68379,108.67891 h -9.99245 v 29.73003 h -5.29304 v -29.73003 h -9.94299 v -4.8973 h 25.22848 z" />
    <path
       id="path890"
       style="stroke-width:0.618345"
       d="m 192.69148,138.40894 h -5.78771 l -9.44832,-13.65306 -8.70629,13.65306 h -5.78771 l 11.82275,-17.2642 -11.62488,-17.36313 h 6.08451 l 8.60737,13.05945 8.80523,-13.05945 h 5.73824 l -12.02063,16.72005 z" />
    <path
       id="path892"
       style="stroke-width:0.618345"
       d="m 218.97732,108.67891 h -9.99245 v 29.73003 h -5.29304 v -29.73003 h -9.94299 v -4.8973 h 25.22848 z" />
    <path
       id="path894"
       style="stroke-width:0.618345"
       d="m 231.26693,101.30823 h 12.71317 v 43.77883 h -12.71317 v -4.05634 h 8.11269 v -35.66614 h -8.11269 z" />
  </g>
</svg>
