<?xml version="1.0" encoding="UTF-8" standalone="no"?>
<svg
   xmlns:dc="http://purl.org/dc/elements/1.1/"
   xmlns:cc="http://creativecommons.org/ns#"
   xmlns:rdf="http://www.w3.org/1999/02/22-rdf-syntax-ns#"
   xmlns:svg="http://www.w3.org/2000/svg"
   xmlns="http://www.w3.org/2000/svg"
   xmlns:sodipodi="http://sodipodi.sourceforge.net/DTD/sodipodi-0.dtd"
   xmlns:inkscape="http://www.inkscape.org/namespaces/inkscape"
   inkscape:version="1.0 (4035a4fb49, 2020-05-01)"
   sodipodi:docname="NeedyKnobComponentNV.svg"
   version="1.1"
   viewBox="0.0 0.0 348.0 348.0"
   fill="none"
   stroke="none"
   stroke-linecap="square"
   stroke-miterlimit="10"
   id="svg125">
  <sodipodi:namedview
     inkscape:current-layer="svg125"
     inkscape:window-maximized="1"
     inkscape:window-y="-8"
     inkscape:window-x="-8"
     inkscape:cy="174"
     inkscape:cx="174"
     inkscape:zoom="2.4425287"
     showgrid="false"
     id="namedview68"
     inkscape:window-height="1017"
     inkscape:window-width="1920"
     inkscape:pageshadow="2"
     inkscape:pageopacity="0"
     guidetolerance="10"
     gridtolerance="10"
     objecttolerance="10"
     borderopacity="1"
     bordercolor="#666666"
     pagecolor="#ffffff" />
  <metadata
     id="metadata131">
    <rdf:RDF>
      <cc:Work
         rdf:about="">
        <dc:format>image/svg+xml</dc:format>
        <dc:type
           rdf:resource="http://purl.org/dc/dcmitype/StillImage" />
        <dc:title></dc:title>
      </cc:Work>
    </rdf:RDF>
  </metadata>
  <defs
     id="defs129" />
  <clipPath
     id="p.0">
    <path
       d="m0 0l348.0 0l0 348.0l-348.0 0l0 -348.0z"
       clip-rule="nonzero"
       id="path2" />
  </clipPath>
  <g
     clip-path="url(#p.0)"
     id="g119">
    <path
       fill="#000000"
       fill-opacity="0"
       d="M 0,0 H 348 V 348 H 0 Z"
       fill-rule="nonzero"
       id="path5" />
    <path
       fill="#ffffff"
       d="M -6,0 H 348.01575 V 347.9685 H -6 Z"
       fill-rule="nonzero"
       id="path7" />
    <path
       fill="#000000"
       fill-opacity="0"
       d="m 5.07874,5.7758217 h 336.9134 V 343.44512 H 5.07874 Z"
       fill-rule="nonzero"
       id="path9" />
    <path
       stroke="#000000"
       stroke-width="2"
       stroke-linejoin="round"
       stroke-linecap="butt"
       d="m 5.07874,5.7758217 h 336.9134 V 343.44512 H 5.07874 Z"
       fill-rule="nonzero"
       id="path11" />
    <path
       fill="#000000"
       d="m 133.84251,15.666667 h 74.33072 v 56.881886 h -74.33072 z"
       fill-rule="nonzero"
       id="path13" />
    <path
       fill="#ffffff"
       d="m 154.53912,44.089794 q 0,-4.0625 0.82812,-6.53125 0.84375,-2.484375 2.48438,-3.828125 1.65625,-1.34375 4.15625,-1.34375 1.84375,0 3.23437,0.75 1.39063,0.734375 2.29688,2.140625 0.90625,1.390625 1.42187,3.40625 0.51563,2 0.51563,5.40625 0,4.03125 -0.82813,6.515625 -0.82812,2.46875 -2.48437,3.828125 -1.64063,1.34375 -4.15625,1.34375 -3.3125,0 -5.20313,-2.375 -2.26562,-2.859375 -2.26562,-9.3125 z m 2.89062,0 q 0,5.640625 1.3125,7.515625 1.32813,1.859375 3.26563,1.859375 1.9375,0 3.25,-1.875 1.32812,-1.875 1.32812,-7.5 0,-5.65625 -1.32812,-7.515625 -1.3125,-1.859375 -3.28125,-1.859375 -1.9375,0 -3.09375,1.640625 -1.45313,2.09375 -1.45313,7.734375 z m 14.90625,0 q 0,-4.0625 0.82813,-6.53125 0.84375,-2.484375 2.48437,-3.828125 1.65625,-1.34375 4.15625,-1.34375 1.84375,0 3.23438,0.75 1.39062,0.734375 2.29687,2.140625 0.90625,1.390625 1.42188,3.40625 0.51562,2 0.51562,5.40625 0,4.03125 -0.82812,6.515625 -0.82813,2.46875 -2.48438,3.828125 -1.64062,1.34375 -4.15625,1.34375 -3.3125,0 -5.20312,-2.375 -2.26563,-2.859375 -2.26563,-9.3125 z m 2.89063,0 q 0,5.640625 1.3125,7.515625 1.32812,1.859375 3.26562,1.859375 1.9375,0 3.25,-1.875 1.32813,-1.875 1.32813,-7.5 0,-5.65625 -1.32813,-7.515625 -1.3125,-1.859375 -3.28125,-1.859375 -1.9375,0 -3.09375,1.640625 -1.45312,2.09375 -1.45312,7.734375 z"
       fill-rule="nonzero"
       id="path15" />
    <path
       fill="#ffffff"
       d="m 145.80315,164.96063 v 0 c 0,-15.7075 12.41617,-28.44095 27.73228,-28.44095 v 0 c 7.35506,0 14.40888,2.99645 19.6097,8.33016 5.20081,5.33372 8.12259,12.56778 8.12259,20.11079 v 0 c 0,15.7075 -12.41617,28.44095 -27.73229,28.44095 v 0 c -15.31611,0 -27.73228,-12.73345 -27.73228,-28.44095 z"
       fill-rule="nonzero"
       id="path17" />
    <path
       stroke="#000000"
       stroke-width="2"
       stroke-linejoin="round"
       stroke-linecap="butt"
       d="m 145.80315,164.96063 v 0 c 0,-15.7075 12.41617,-28.44095 27.73228,-28.44095 v 0 c 7.35506,0 14.40888,2.99645 19.6097,8.33016 5.20081,5.33372 8.12259,12.56778 8.12259,20.11079 v 0 c 0,15.7075 -12.41617,28.44095 -27.73229,28.44095 v 0 c -15.31611,0 -27.73228,-12.73345 -27.73228,-28.44095 z"
       fill-rule="nonzero"
       id="path19" />
    <path
       fill="#000000"
       fill-opacity="0"
       d="m 148.85039,82.88714 h 52.40945 v 48.00001 h -52.40945 z"
       fill-rule="nonzero"
       id="path21" />
    <path
       fill="#ffffff"
       d="m 39.766403,202.43307 v 0 c 0,-8.019 6.789761,-14.51968 15.165356,-14.51968 v 0 c 4.022102,0 7.879467,1.52974 10.723522,4.25271 2.844055,2.72296 4.441834,6.41611 4.441834,10.26697 v 0 c 0,8.019 -6.789761,14.51968 -15.165357,14.51968 v 0 c -8.375595,0 -15.165356,-6.50068 -15.165355,-14.51968 z"
       fill-rule="nonzero"
       id="path23" />
    <path
       stroke="#000000"
       stroke-width="2"
       stroke-linejoin="round"
       stroke-linecap="butt"
       d="m 39.766403,202.43307 v 0 c 0,-8.019 6.789761,-14.51968 15.165356,-14.51968 v 0 c 4.022102,0 7.879467,1.52974 10.723522,4.25271 2.844055,2.72296 4.441834,6.41611 4.441834,10.26697 v 0 c 0,8.019 -6.789761,14.51968 -15.165357,14.51968 v 0 c -8.375595,0 -15.165356,-6.50068 -15.165355,-14.51968 z"
       fill-rule="nonzero"
       id="path25" />
    <path
       fill="#ffffff"
       d="m 85.020996,242.1378 v 0 c 0,-8.01901 6.789764,-14.5197 15.165354,-14.5197 v 0 c 4.0221,0 7.87947,1.52976 10.72352,4.25273 2.84406,2.72296 4.44184,6.41611 4.44184,10.26697 v 0 c 0,8.019 -6.78977,14.51967 -15.16536,14.51967 v 0 c -8.375589,0 -15.165354,-6.50067 -15.165354,-14.51967 z"
       fill-rule="nonzero"
       id="path27" />
    <path
       stroke="#000000"
       stroke-width="2"
       stroke-linejoin="round"
       stroke-linecap="butt"
       d="m 85.020996,242.1378 v 0 c 0,-8.01901 6.789764,-14.5197 15.165354,-14.5197 v 0 c 4.0221,0 7.87947,1.52976 10.72352,4.25273 2.84406,2.72296 4.44184,6.41611 4.44184,10.26697 v 0 c 0,8.019 -6.78977,14.51967 -15.16536,14.51967 v 0 c -8.375589,0 -15.165354,-6.50067 -15.165354,-14.51967 z"
       fill-rule="nonzero"
       id="path29" />
    <path
       fill="#ffffff"
       d="m 132.69423,280.22964 v 0 c 0,-8.01898 6.78976,-14.51968 15.16534,-14.51968 v 0 c 4.02211,0 7.87947,1.52975 10.72353,4.25271 2.84406,2.72299 4.44183,6.41611 4.44183,10.26697 v 0 c 0,8.01901 -6.78976,14.51971 -15.16536,14.51971 v 0 c -8.37558,0 -15.16534,-6.5007 -15.16534,-14.51971 z"
       fill-rule="nonzero"
       id="path31" />
    <path
       stroke="#000000"
       stroke-width="2"
       stroke-linejoin="round"
       stroke-linecap="butt"
       d="m 132.69423,280.22964 v 0 c 0,-8.01898 6.78976,-14.51968 15.16534,-14.51968 v 0 c 4.02211,0 7.87947,1.52975 10.72353,4.25271 2.84406,2.72299 4.44183,6.41611 4.44183,10.26697 v 0 c 0,8.01901 -6.78976,14.51971 -15.16536,14.51971 v 0 c -8.37558,0 -15.16534,-6.5007 -15.16534,-14.51971 z"
       fill-rule="nonzero"
       id="path33" />
    <path
       fill="#ffffff"
       d="m 41.597115,247.71391 v 0 c 0,-8.019 6.789757,-14.51968 15.165352,-14.51968 v 0 c 4.022102,0 7.879471,1.52974 10.723526,4.25271 2.844055,2.72296 4.441826,6.41611 4.441826,10.26697 v 0 c 0,8.019 -6.789757,14.5197 -15.165352,14.5197 v 0 c -8.375595,0 -15.165352,-6.5007 -15.165352,-14.5197 z"
       fill-rule="nonzero"
       id="path35" />
    <path
       stroke="#000000"
       stroke-width="2"
       stroke-linejoin="round"
       stroke-linecap="butt"
       d="m 41.597115,247.71391 v 0 c 0,-8.019 6.789757,-14.51968 15.165352,-14.51968 v 0 c 4.022102,0 7.879471,1.52974 10.723526,4.25271 2.844055,2.72296 4.441826,6.41611 4.441826,10.26697 v 0 c 0,8.019 -6.789757,14.5197 -15.165352,14.5197 v 0 c -8.375595,0 -15.165352,-6.5007 -15.165352,-14.5197 z"
       fill-rule="nonzero"
       id="path37" />
    <path
       fill="#ffffff"
       d="m 86.85171,287.41864 v 0 c 0,-8.01901 6.789757,-14.51968 15.16535,-14.51968 v 0 c 4.0221,0 7.87947,1.52975 10.72353,4.25271 2.84405,2.72296 4.44182,6.41611 4.44182,10.26697 v 0 c 0,8.01898 -6.78975,14.51968 -15.16535,14.51968 v 0 c -8.375593,0 -15.16535,-6.5007 -15.16535,-14.51968 z"
       fill-rule="nonzero"
       id="path39" />
    <path
       stroke="#000000"
       stroke-width="2"
       stroke-linejoin="round"
       stroke-linecap="butt"
       d="m 86.85171,287.41864 v 0 c 0,-8.01901 6.789757,-14.51968 15.16535,-14.51968 v 0 c 4.0221,0 7.87947,1.52975 10.72353,4.25271 2.84405,2.72296 4.44182,6.41611 4.44182,10.26697 v 0 c 0,8.01898 -6.78975,14.51968 -15.16535,14.51968 v 0 c -8.375593,0 -15.16535,-6.5007 -15.16535,-14.51968 z"
       fill-rule="nonzero"
       id="path41" />
    <path
       fill="#ffffff"
       d="m 134.52493,325.5105 v 0 c 0,-8.01901 6.78976,-14.51968 15.16536,-14.51968 v 0 c 4.02209,0 7.87947,1.52975 10.72353,4.25271 2.84405,2.72296 4.44181,6.41611 4.44181,10.26697 v 0 c 0,8.01901 -6.78975,14.51968 -15.16534,14.51968 v 0 c -8.3756,0 -15.16536,-6.50067 -15.16536,-14.51968 z"
       fill-rule="nonzero"
       id="path43" />
    <path
       stroke="#000000"
       stroke-width="2"
       stroke-linejoin="round"
       stroke-linecap="butt"
       d="m 134.52493,325.5105 v 0 c 0,-8.01901 6.78976,-14.51968 15.16536,-14.51968 v 0 c 4.02209,0 7.87947,1.52975 10.72353,4.25271 2.84405,2.72296 4.44181,6.41611 4.44181,10.26697 v 0 c 0,8.01901 -6.78975,14.51968 -15.16534,14.51968 v 0 c -8.3756,0 -15.16536,-6.50067 -15.16536,-14.51968 z"
       fill-rule="nonzero"
       id="path45" />
    <path
       fill="#ffffff"
       d="m 182.21391,280.22964 v 0 c 0,-8.01898 6.78976,-14.51968 15.16536,-14.51968 v 0 c 4.02209,0 7.87946,1.52975 10.72351,4.25271 2.84406,2.72299 4.44183,6.41611 4.44183,10.26697 v 0 c 0,8.01901 -6.78976,14.51971 -15.16534,14.51971 v 0 c -8.3756,0 -15.16536,-6.5007 -15.16536,-14.51971 z"
       fill-rule="nonzero"
       id="path47" />
    <path
       stroke="#000000"
       stroke-width="2"
       stroke-linejoin="round"
       stroke-linecap="butt"
       d="m 182.21391,280.22964 v 0 c 0,-8.01898 6.78976,-14.51968 15.16536,-14.51968 v 0 c 4.02209,0 7.87946,1.52975 10.72351,4.25271 2.84406,2.72299 4.44183,6.41611 4.44183,10.26697 v 0 c 0,8.01901 -6.78976,14.51971 -15.16534,14.51971 v 0 c -8.3756,0 -15.16536,-6.5007 -15.16536,-14.51971 z"
       fill-rule="nonzero"
       id="path49" />
    <path
       fill="#ffffff"
       d="m 184.04462,325.5105 v 0 c 0,-8.01901 6.78976,-14.51968 15.16536,-14.51968 v 0 c 4.02209,0 7.87947,1.52975 10.72353,4.25271 2.84405,2.72296 4.44181,6.41611 4.44181,10.26697 v 0 c 0,8.01901 -6.78975,14.51968 -15.16534,14.51968 v 0 c -8.3756,0 -15.16536,-6.50067 -15.16536,-14.51968 z"
       fill-rule="nonzero"
       id="path51" />
    <path
       stroke="#000000"
       stroke-width="2"
       stroke-linejoin="round"
       stroke-linecap="butt"
       d="m 184.04462,325.5105 v 0 c 0,-8.01901 6.78976,-14.51968 15.16536,-14.51968 v 0 c 4.02209,0 7.87947,1.52975 10.72353,4.25271 2.84405,2.72296 4.44181,6.41611 4.44181,10.26697 v 0 c 0,8.01901 -6.78975,14.51968 -15.16534,14.51968 v 0 c -8.3756,0 -15.16536,-6.50067 -15.16536,-14.51968 z"
       fill-rule="nonzero"
       id="path53" />
    <path
       fill="#ffffff"
       d="m 226.04199,242.1378 v 0 c 0,-8.01901 6.78976,-14.5197 15.16536,-14.5197 v 0 c 4.02209,0 7.87947,1.52976 10.72353,4.25273 2.84405,2.72296 4.44183,6.41611 4.44183,10.26697 v 0 c 0,8.019 -6.78977,14.51967 -15.16536,14.51967 v 0 c -8.3756,0 -15.16536,-6.50067 -15.16536,-14.51967 z"
       fill-rule="nonzero"
       id="path55" />
    <path
       stroke="#000000"
       stroke-width="2"
       stroke-linejoin="round"
       stroke-linecap="butt"
       d="m 226.04199,242.1378 v 0 c 0,-8.01901 6.78976,-14.5197 15.16536,-14.5197 v 0 c 4.02209,0 7.87947,1.52976 10.72353,4.25273 2.84405,2.72296 4.44183,6.41611 4.44183,10.26697 v 0 c 0,8.019 -6.78977,14.51967 -15.16536,14.51967 v 0 c -8.3756,0 -15.16536,-6.50067 -15.16536,-14.51967 z"
       fill-rule="nonzero"
       id="path57" />
    <path
       fill="#ffffff"
       d="m 227.8727,287.41864 v 0 c 0,-8.01901 6.78976,-14.51968 15.16536,-14.51968 v 0 c 4.02211,0 7.87947,1.52975 10.72353,4.25271 2.84407,2.72296 4.44181,6.41611 4.44181,10.26697 v 0 c 0,8.01898 -6.78975,14.51968 -15.16534,14.51968 v 0 c -8.3756,0 -15.16536,-6.5007 -15.16536,-14.51968 z"
       fill-rule="nonzero"
       id="path59" />
    <path
       stroke="#000000"
       stroke-width="2"
       stroke-linejoin="round"
       stroke-linecap="butt"
       d="m 227.8727,287.41864 v 0 c 0,-8.01901 6.78976,-14.51968 15.16536,-14.51968 v 0 c 4.02211,0 7.87947,1.52975 10.72353,4.25271 2.84407,2.72296 4.44181,6.41611 4.44181,10.26697 v 0 c 0,8.01898 -6.78975,14.51968 -15.16534,14.51968 v 0 c -8.3756,0 -15.16536,-6.5007 -15.16536,-14.51968 z"
       fill-rule="nonzero"
       id="path61" />
    <path
       fill="#ffffff"
       d="m 272.41733,202.43307 v 0 c 0,-8.019 6.78976,-14.51968 15.16534,-14.51968 v 0 c 4.0221,0 7.87949,1.52974 10.72354,4.25271 2.84406,2.72296 4.44181,6.41611 4.44181,10.26697 v 0 c 0,8.019 -6.78974,14.51968 -15.16535,14.51968 v 0 c -8.37558,0 -15.16534,-6.50068 -15.16534,-14.51968 z"
       fill-rule="nonzero"
       id="path63" />
    <path
       stroke="#000000"
       stroke-width="2"
       stroke-linejoin="round"
       stroke-linecap="butt"
       d="m 272.41733,202.43307 v 0 c 0,-8.019 6.78976,-14.51968 15.16534,-14.51968 v 0 c 4.0221,0 7.87949,1.52974 10.72354,4.25271 2.84406,2.72296 4.44181,6.41611 4.44181,10.26697 v 0 c 0,8.019 -6.78974,14.51968 -15.16535,14.51968 v 0 c -8.37558,0 -15.16534,-6.50068 -15.16534,-14.51968 z"
       fill-rule="nonzero"
       id="path65" />
    <path
       fill="#ffffff"
       d="m 274.24802,247.71391 v 0 c 0,-8.019 6.78976,-14.51968 15.16537,-14.51968 v 0 c 4.0221,0 7.87946,1.52974 10.72352,4.25271 2.84405,2.72296 4.44183,6.41611 4.44183,10.26697 v 0 c 0,8.019 -6.78976,14.5197 -15.16534,14.5197 v 0 c -8.37561,0 -15.16538,-6.5007 -15.16538,-14.5197 z"
       fill-rule="nonzero"
       id="path67" />
    <path
       stroke="#000000"
       stroke-width="2"
       stroke-linejoin="round"
       stroke-linecap="butt"
       d="m 274.24802,247.71391 v 0 c 0,-8.019 6.78976,-14.51968 15.16537,-14.51968 v 0 c 4.0221,0 7.87946,1.52974 10.72352,4.25271 2.84405,2.72296 4.44183,6.41611 4.44183,10.26697 v 0 c 0,8.019 -6.78976,14.5197 -15.16534,14.5197 v 0 c -8.37561,0 -15.16538,-6.5007 -15.16538,-14.5197 z"
       fill-rule="nonzero"
       id="path69" />
    <path
       fill="#ffffff"
       d="m 195.9685,149.79527 31.9055,15.16536 -31.9055,15.16534 z"
       fill-rule="nonzero"
       id="path71" />
    <path
       stroke="#000000"
       stroke-width="2"
       stroke-linejoin="round"
       stroke-linecap="butt"
       d="m 195.9685,149.79527 31.9055,15.16536 -31.9055,15.16534 z"
       fill-rule="nonzero"
       id="path73" />
    <path
       fill="#000000"
       fill-opacity="0"
       d="m 101.35433,159.3832 v 0 c 0,-40.76469 32.99697,-73.81101 73.70078,-73.81101 v 0 c 19.54666,0 38.29276,7.776489 52.11433,21.61874 13.82158,13.84226 21.58646,32.61637 21.58646,52.19227 v 0 c 0,40.76471 -32.99696,73.81104 -73.70079,73.81104 v 0 c -40.70381,0 -73.70078,-33.04633 -73.70078,-73.81104 z"
       fill-rule="nonzero"
       id="path75" />
    <path
       stroke="#000000"
       stroke-width="2"
       stroke-linejoin="round"
       stroke-linecap="butt"
       d="m 101.35433,159.3832 v 0 c 0,-40.76469 32.99697,-73.81101 73.70078,-73.81101 v 0 c 19.54666,0 38.29276,7.776489 52.11433,21.61874 13.82158,13.84226 21.58646,32.61637 21.58646,52.19227 v 0 c 0,40.76471 -32.99696,73.81104 -73.70079,73.81104 v 0 c -40.70381,0 -73.70078,-33.04633 -73.70078,-73.81104 z"
       fill-rule="nonzero"
       id="path77" />
    <path
       fill="#ffffff"
       d="M 15.262467,17.706038 H 125.15223 v 54.83464 H 15.262467 Z"
       fill-rule="nonzero"
       id="path79" />
    <path
       stroke="#000000"
       stroke-width="2"
       stroke-linejoin="round"
       stroke-linecap="butt"
       d="M 15.262467,17.706038 H 125.15223 v 54.83464 H 15.262467 Z"
       fill-rule="nonzero"
       id="path81" />
    <path
       fill="#000000"
       fill-opacity="0"
       d="M 15.262467,72.65354 54.947507,18.5748"
       fill-rule="nonzero"
       id="path83" />
    <path
       stroke="#000000"
       stroke-width="2"
       stroke-linejoin="round"
       stroke-linecap="butt"
       d="M 15.262467,72.65354 54.947507,18.5748"
       fill-rule="nonzero"
       id="path85" />
    <path
       fill="#000000"
       fill-opacity="0"
       d="M 37.56649,72.65354 77.251533,18.5748"
       fill-rule="nonzero"
       id="path87" />
    <path
       stroke="#000000"
       stroke-width="2"
       stroke-linejoin="round"
       stroke-linecap="butt"
       d="M 37.56649,72.65354 77.251533,18.5748"
       fill-rule="nonzero"
       id="path89" />
    <path
       fill="#000000"
       fill-opacity="0"
       d="M 59.870514,72.65354 99.555557,18.5748"
       fill-rule="nonzero"
       id="path91" />
    <path
       stroke="#000000"
       stroke-width="2"
       stroke-linejoin="round"
       stroke-linecap="butt"
       d="M 59.870514,72.65354 99.555557,18.5748"
       fill-rule="nonzero"
       id="path93" />
    <path
       fill="#000000"
       fill-opacity="0"
       d="M 82.17454,72.65354 121.85958,18.5748"
       fill-rule="nonzero"
       id="path95" />
    <path
       stroke="#000000"
       stroke-width="2"
       stroke-linejoin="round"
       stroke-linecap="butt"
       d="M 82.17454,72.65354 121.85958,18.5748"
       fill-rule="nonzero"
       id="path97" />
    <path
       fill="#ffffff"
       d="m 216.86351,16.633858 h 109.88975 v 54.83465 H 216.86351 Z"
       fill-rule="nonzero"
       id="path99" />
    <path
       stroke="#000000"
       stroke-width="2"
       stroke-linejoin="round"
       stroke-linecap="butt"
       d="m 216.86351,16.633858 h 109.88975 v 54.83465 H 216.86351 Z"
       fill-rule="nonzero"
       id="path101" />
    <path
       fill="#000000"
       fill-opacity="0"
       d="M 216.86351,71.58137 256.54855,17.502627"
       fill-rule="nonzero"
       id="path103" />
    <path
       stroke="#000000"
       stroke-width="2"
       stroke-linejoin="round"
       stroke-linecap="butt"
       d="M 216.86351,71.58137 256.54855,17.502627"
       fill-rule="nonzero"
       id="path105" />
    <path
       fill="#000000"
       fill-opacity="0"
       d="M 239.16754,71.58137 278.85257,17.502627"
       fill-rule="nonzero"
       id="path107" />
    <path
       stroke="#000000"
       stroke-width="2"
       stroke-linejoin="round"
       stroke-linecap="butt"
       d="M 239.16754,71.58137 278.85257,17.502627"
       fill-rule="nonzero"
       id="path109" />
    <path
       fill="#000000"
       fill-opacity="0"
       d="M 261.47156,71.58137 301.15662,17.502627"
       fill-rule="nonzero"
       id="path111" />
    <path
       stroke="#000000"
       stroke-width="2"
       stroke-linejoin="round"
       stroke-linecap="butt"
       d="M 261.47156,71.58137 301.15662,17.502627"
       fill-rule="nonzero"
       id="path113" />
    <path
       fill="#000000"
       fill-opacity="0"
       d="M 283.7756,71.58137 323.46063,17.502627"
       fill-rule="nonzero"
       id="path115" />
    <path
       stroke="#000000"
       stroke-width="2"
       stroke-linejoin="round"
       stroke-linecap="butt"
       d="M 283.7756,71.58137 323.46063,17.502627"
       fill-rule="nonzero"
       id="path117" />
  </g>
  <g
     style="font-size:21.5126px;line-height:1.25;font-family:Cabin;-inkscape-font-specification:Cabin;text-align:center;text-anchor:middle;fill:#000000;stroke-width:0.268908"
     id="text895"
     aria-label="P">
    <path
       id="path897"
       style="stroke-width:0.268908"
       d="m 174.19856,104.10287 h -3.07631 v 5.16302 h -2.36638 V 94.207072 h 4.64672 q 1.20471,0 2.23731,0.172101 1.03261,0.150588 1.78555,0.66689 0.77445,0.49479 1.2047,1.419832 0.43025,0.925042 0.43025,2.452436 0,1.462859 -0.45176,2.473949 -0.45176,0.98958 -1.16168,1.59193 -0.70992,0.60236 -1.57042,0.86051 -0.8605,0.25815 -1.67798,0.25815 z m -0.79597,-7.895126 h -2.28034 v 5.808406 h 2.68908 q 1.54891,0 2.2158,-0.73143 0.66689,-0.75294 0.66689,-2.301851 0,-0.774453 -0.1721,-1.290756 -0.15059,-0.537815 -0.53782,-0.860504 -0.38722,-0.322689 -1.0326,-0.473277 -0.62387,-0.150588 -1.54891,-0.150588 z" />
  </g>
</svg>
