<?xml version="1.0" encoding="UTF-8" standalone="no"?>
<svg
   xmlns:dc="http://purl.org/dc/elements/1.1/"
   xmlns:cc="http://creativecommons.org/ns#"
   xmlns:rdf="http://www.w3.org/1999/02/22-rdf-syntax-ns#"
   xmlns:svg="http://www.w3.org/2000/svg"
   xmlns="http://www.w3.org/2000/svg"
   xmlns:sodipodi="http://sodipodi.sourceforge.net/DTD/sodipodi-0.dtd"
   xmlns:inkscape="http://www.inkscape.org/namespaces/inkscape"
   inkscape:version="1.0 (4035a4fb49, 2020-05-01)"
   sodipodi:docname="PasswordComponentNV.svg"
   version="1.1"
   viewBox="0.0 0.0 348.0 348.0"
   fill="none"
   stroke="none"
   stroke-linecap="square"
   stroke-miterlimit="10"
   id="svg111">
  <sodipodi:namedview
     inkscape:current-layer="svg111"
     inkscape:window-maximized="1"
     inkscape:window-y="-8"
     inkscape:window-x="-8"
     inkscape:cy="174"
     inkscape:cx="174"
     inkscape:zoom="2.4425287"
     showgrid="false"
     id="namedview65"
     inkscape:window-height="1017"
     inkscape:window-width="1920"
     inkscape:pageshadow="2"
     inkscape:pageopacity="0"
     guidetolerance="10"
     gridtolerance="10"
     objecttolerance="10"
     borderopacity="1"
     bordercolor="#666666"
     pagecolor="#ffffff" />
  <metadata
     id="metadata117">
    <rdf:RDF>
      <cc:Work
         rdf:about="">
        <dc:format>image/svg+xml</dc:format>
        <dc:type
           rdf:resource="http://purl.org/dc/dcmitype/StillImage" />
        <dc:title></dc:title>
      </cc:Work>
    </rdf:RDF>
  </metadata>
  <defs
     id="defs115" />
  <clipPath
     id="p.0">
    <path
       d="m0 0l348.0 0l0 348.0l-348.0 0l0 -348.0z"
       clip-rule="nonzero"
       id="path2" />
  </clipPath>
  <g
     clip-path="url(#p.0)"
     id="g85">
    <path
       fill="#000000"
       fill-opacity="0"
       d="M 0,0 H 348 V 348 H 0 Z"
       fill-rule="evenodd"
       id="path5" />
    <path
       fill="#ffffff"
       d="M -6,0 H 348.01575 V 347.9685 H -6 Z"
       fill-rule="evenodd"
       id="path7" />
    <path
       fill="#000000"
       fill-opacity="0"
       d="m 5.07874,5.7758217 h 336.9134 V 343.4451 H 5.07874 Z"
       fill-rule="evenodd"
       id="path9" />
    <path
       stroke="#000000"
       stroke-width="2"
       stroke-linejoin="round"
       stroke-linecap="butt"
       d="m 5.07874,5.7758217 h 336.9134 V 343.4451 H 5.07874 Z"
       fill-rule="evenodd"
       id="path11" />
    <path
       fill="#ffffff"
       d="m 282.73444,40.553925 v 0 c 0,-8.375591 6.96603,-15.165352 15.55905,-15.165352 v 0 c 4.12653,0 8.08402,1.597773 11.00192,4.441828 2.91788,2.844057 4.55713,6.701422 4.55713,10.723524 v 0 c 0,8.375595 -6.966,15.165356 -15.55905,15.165356 v 0 c -8.59302,0 -15.55905,-6.789761 -15.55905,-15.165356 z"
       fill-rule="evenodd"
       id="path13" />
    <path
       stroke="#000000"
       stroke-width="2"
       stroke-linejoin="round"
       stroke-linecap="butt"
       d="m 282.73444,40.553925 v 0 c 0,-8.375591 6.96603,-15.165352 15.55905,-15.165352 v 0 c 4.12653,0 8.08402,1.597773 11.00192,4.441828 2.91788,2.844057 4.55713,6.701422 4.55713,10.723524 v 0 c 0,8.375595 -6.966,15.165356 -15.55905,15.165356 v 0 c -8.59302,0 -15.55905,-6.789761 -15.55905,-15.165356 z"
       fill-rule="evenodd"
       id="path15" />
    <path
       fill="#000000"
       d="M 50.949955,90.04964 60.41452,72.726802 69.879089,90.04964 Z"
       fill-rule="evenodd"
       id="path17" />
    <path
       stroke="#000000"
       stroke-width="2"
       stroke-linejoin="round"
       stroke-linecap="butt"
       d="M 50.949955,90.04964 60.41452,72.726802 69.879089,90.04964 Z"
       fill-rule="evenodd"
       id="path19" />
    <path
       fill="#000000"
       fill-opacity="0"
       d="m 122.04724,268.00525 h 97.92126 v 41.88977 h -97.92126 z"
       fill-rule="evenodd"
       id="path21" />
    <path
       stroke="#000000"
       stroke-width="2"
       stroke-linejoin="round"
       stroke-linecap="butt"
       d="m 122.04724,268.00525 h 97.92126 v 41.88977 h -97.92126 z"
       fill-rule="evenodd"
       id="path23" />
    <path
       fill="#000000"
       d="M 29.517061,106.30446 H 289.61154 v 96.81889 H 29.517061 Z"
       fill-rule="evenodd"
       id="path25" />
    <path
       stroke="#000000"
       stroke-width="2"
       stroke-linejoin="round"
       stroke-linecap="butt"
       d="M 29.517061,106.30446 H 289.61154 v 96.81889 H 29.517061 Z"
       fill-rule="evenodd"
       id="path27" />
    <path
       fill="#ffffff"
       d="m 35.627296,113.07874 h 49.574806 v 82.14173 H 35.627296 Z"
       fill-rule="evenodd"
       id="path29" />
    <path
       stroke="#000000"
       stroke-width="1"
       stroke-linejoin="round"
       stroke-linecap="butt"
       d="m 35.627296,113.07874 h 49.574806 v 82.14173 H 35.627296 Z"
       fill-rule="evenodd"
       id="path31" />
    <path
       fill="#ffffff"
       d="m 85.2021,113.07874 h 49.5748 v 82.14173 H 85.2021 Z"
       fill-rule="evenodd"
       id="path33" />
    <path
       stroke="#000000"
       stroke-width="1"
       stroke-linejoin="round"
       stroke-linecap="butt"
       d="m 85.2021,113.07874 h 49.5748 v 82.14173 H 85.2021 Z"
       fill-rule="evenodd"
       id="path35" />
    <path
       fill="#ffffff"
       d="m 134.77843,113.07874 h 49.5748 v 82.14173 h -49.5748 z"
       fill-rule="evenodd"
       id="path37" />
    <path
       stroke="#000000"
       stroke-width="1"
       stroke-linejoin="round"
       stroke-linecap="butt"
       d="m 134.77843,113.07874 h 49.5748 v 82.14173 h -49.5748 z"
       fill-rule="evenodd"
       id="path39" />
    <path
       fill="#ffffff"
       d="m 184.35214,113.07874 h 49.5748 v 82.14173 h -49.5748 z"
       fill-rule="evenodd"
       id="path41" />
    <path
       stroke="#000000"
       stroke-width="1"
       stroke-linejoin="round"
       stroke-linecap="butt"
       d="m 184.35214,113.07874 h 49.5748 v 82.14173 h -49.5748 z"
       fill-rule="evenodd"
       id="path43" />
    <path
       fill="#ffffff"
       d="m 233.9265,113.07874 h 49.57481 v 82.14173 H 233.9265 Z"
       fill-rule="evenodd"
       id="path45" />
    <path
       stroke="#000000"
       stroke-width="1"
       stroke-linejoin="round"
       stroke-linecap="butt"
       d="m 233.9265,113.07874 h 49.57481 v 82.14173 H 233.9265 Z"
       fill-rule="evenodd"
       id="path47" />
    <path
       fill="#000000"
       d="m 100.52476,90.04964 9.46457,-17.322838 9.46457,17.322838 z"
       fill-rule="evenodd"
       id="path49" />
    <path
       stroke="#000000"
       stroke-width="2"
       stroke-linejoin="round"
       stroke-linecap="butt"
       d="m 100.52476,90.04964 9.46457,-17.322838 9.46457,17.322838 z"
       fill-rule="evenodd"
       id="path51" />
    <path
       fill="#000000"
       d="m 150.09956,90.04964 9.46457,-17.322838 9.46457,17.322838 z"
       fill-rule="evenodd"
       id="path53" />
    <path
       stroke="#000000"
       stroke-width="2"
       stroke-linejoin="round"
       stroke-linecap="butt"
       d="m 150.09956,90.04964 9.46457,-17.322838 9.46457,17.322838 z"
       fill-rule="evenodd"
       id="path55" />
    <path
       fill="#000000"
       d="m 199.67436,90.04964 9.46457,-17.322838 9.46457,17.322838 z"
       fill-rule="evenodd"
       id="path57" />
    <path
       stroke="#000000"
       stroke-width="2"
       stroke-linejoin="round"
       stroke-linecap="butt"
       d="m 199.67436,90.04964 9.46457,-17.322838 9.46457,17.322838 z"
       fill-rule="evenodd"
       id="path59" />
    <path
       fill="#000000"
       d="m 249.24916,90.04964 9.46458,-17.322838 9.46457,17.322838 z"
       fill-rule="evenodd"
       id="path61" />
    <path
       stroke="#000000"
       stroke-width="2"
       stroke-linejoin="round"
       stroke-linecap="butt"
       d="m 249.24916,90.04964 9.46458,-17.322838 9.46457,17.322838 z"
       fill-rule="evenodd"
       id="path63" />
    <path
       fill="#000000"
       d="m 268.1783,219.37772 -9.46457,17.32284 -9.46458,-17.32284 z"
       fill-rule="evenodd"
       id="path65" />
    <path
       stroke="#000000"
       stroke-width="2"
       stroke-linejoin="round"
       stroke-linecap="butt"
       d="m 268.1783,219.37772 -9.46457,17.32284 -9.46458,-17.32284 z"
       fill-rule="evenodd"
       id="path67" />
    <path
       fill="#000000"
       d="m 218.6035,219.37772 -9.46457,17.32284 -9.46457,-17.32284 z"
       fill-rule="evenodd"
       id="path69" />
    <path
       stroke="#000000"
       stroke-width="2"
       stroke-linejoin="round"
       stroke-linecap="butt"
       d="m 218.6035,219.37772 -9.46457,17.32284 -9.46457,-17.32284 z"
       fill-rule="evenodd"
       id="path71" />
    <path
       fill="#000000"
       d="m 169.0287,219.37772 -9.46457,17.32284 -9.46457,-17.32284 z"
       fill-rule="evenodd"
       id="path73" />
    <path
       stroke="#000000"
       stroke-width="2"
       stroke-linejoin="round"
       stroke-linecap="butt"
       d="m 169.0287,219.37772 -9.46457,17.32284 -9.46457,-17.32284 z"
       fill-rule="evenodd"
       id="path75" />
    <path
       fill="#000000"
       d="m 119.4539,219.37772 -9.46457,17.32284 -9.46457,-17.32284 z"
       fill-rule="evenodd"
       id="path77" />
    <path
       stroke="#000000"
       stroke-width="2"
       stroke-linejoin="round"
       stroke-linecap="butt"
       d="m 119.4539,219.37772 -9.46457,17.32284 -9.46457,-17.32284 z"
       fill-rule="evenodd"
       id="path79" />
    <path
       fill="#000000"
       d="m 69.87909,219.37772 -9.464569,17.32284 -9.464565,-17.32284 z"
       fill-rule="evenodd"
       id="path81" />
    <path
       stroke="#000000"
       stroke-width="2"
       stroke-linejoin="round"
       stroke-linecap="butt"
       d="m 69.87909,219.37772 -9.464569,17.32284 -9.464565,-17.32284 z"
       fill-rule="evenodd"
       id="path83" />
  </g>
  <g
     aria-label="SUBMIT"
     id="text89"
     style="font-size:20px;font-family:'DejaVu Sans', sans-serif;text-anchor:middle;fill:#000000">
    <path
       d="m 143.48047,281.89844 v 1.92383 q -1.12305,-0.53711 -2.11914,-0.80079 -0.9961,-0.26367 -1.92383,-0.26367 -1.61133,0 -2.49023,0.625 -0.86915,0.625 -0.86915,1.77735 0,0.96679 0.57618,1.46484 0.58593,0.48828 2.20703,0.79102 l 1.1914,0.24414 q 2.20704,0.41992 3.25196,1.48437 1.05468,1.05469 1.05468,2.83203 0,2.11914 -1.42578,3.21289 -1.41601,1.09375 -4.16015,1.09375 -1.03516,0 -2.20703,-0.23437 -1.16211,-0.23438 -2.41211,-0.69336 v -2.03125 q 1.20117,0.67383 2.35351,1.01562 1.15235,0.3418 2.26563,0.3418 1.68945,0 2.60742,-0.66406 0.91797,-0.66406 0.91797,-1.89453 0,-1.07422 -0.66406,-1.67969 -0.6543,-0.60547 -2.15821,-0.9082 l -1.20117,-0.23438 q -2.20703,-0.43945 -3.19336,-1.37695 -0.98633,-0.9375 -0.98633,-2.60742 0,-1.9336 1.35742,-3.04688 1.36719,-1.11328 3.75977,-1.11328 1.02539,0 2.08984,0.18555 1.06446,0.18554 2.17774,0.55664 z"
       id="path119" />
    <path
       d="m 147.21094,281.41992 h 1.98242 v 8.85742 q 0,2.34375 0.84961,3.37891 0.84961,1.02539 2.7539,1.02539 1.89454,0 2.74415,-1.02539 0.8496,-1.03516 0.8496,-3.37891 v -8.85742 h 1.98243 v 9.10156 q 0,2.85157 -1.41602,4.30664 -1.40625,1.45508 -4.16016,1.45508 -2.76367,0 -4.17968,-1.45508 -1.40625,-1.45507 -1.40625,-4.30664 z"
       id="path121" />
    <path
       d="m 164.05664,289.03711 v 5.3418 h 3.16406 q 1.5918,0 2.35352,-0.6543 0.77148,-0.66406 0.77148,-2.02149 0,-1.36718 -0.77148,-2.01171 -0.76172,-0.6543 -2.35352,-0.6543 z m 0,-5.99609 v 4.39453 h 2.91992 q 1.44531,0 2.14844,-0.53711 0.71289,-0.54688 0.71289,-1.66016 0,-1.10351 -0.71289,-1.65039 -0.70313,-0.54687 -2.14844,-0.54687 z m -1.97266,-1.6211 h 5.03907 q 2.25586,0 3.47656,0.9375 1.2207,0.9375 1.2207,2.66602 0,1.33789 -0.625,2.1289 -0.625,0.79102 -1.83594,0.98633 1.45508,0.3125 2.25586,1.3086 0.81055,0.98632 0.81055,2.4707 0,1.95312 -1.32812,3.01758 Q 169.76953,296 167.31836,296 h -5.23438 z"
       id="path123" />
    <path
       d="m 175.79492,281.41992 h 2.93945 l 3.72071,9.92188 3.74023,-9.92188 h 2.93946 V 296 h -1.92383 v -12.80273 l -3.75977,10 h -1.98242 l -3.75977,-10 V 296 h -1.91406 z"
       id="path125" />
    <path
       d="m 193.06055,281.41992 h 1.97265 V 296 h -1.97265 z"
       id="path127" />
    <path
       d="m 196.9375,281.41992 h 12.33398 v 1.66016 H 204.0957 V 296 h -1.98242 v -12.91992 h -5.17578 z"
       id="path129" />
  </g>
</svg>
