<?xml version="1.0" encoding="UTF-8" standalone="no"?>
<svg
   xmlns:dc="http://purl.org/dc/elements/1.1/"
   xmlns:cc="http://creativecommons.org/ns#"
   xmlns:rdf="http://www.w3.org/1999/02/22-rdf-syntax-ns#"
   xmlns:svg="http://www.w3.org/2000/svg"
   xmlns="http://www.w3.org/2000/svg"
   xmlns:sodipodi="http://sodipodi.sourceforge.net/DTD/sodipodi-0.dtd"
   xmlns:inkscape="http://www.inkscape.org/namespaces/inkscape"
   id="svg111"
   stroke-miterlimit="10"
   stroke-linecap="square"
   stroke="none"
   fill="none"
   viewBox="0.0 0.0 348.0 348.0"
   version="1.1"
   sodipodi:docname="PasswordComponentNV.svg"
   inkscape:version="1.0 (4035a4fb49, 2020-05-01)">
  <sodipodi:namedview
     inkscape:document-rotation="0"
     pagecolor="#ffffff"
     bordercolor="#666666"
     borderopacity="1"
     objecttolerance="10"
     gridtolerance="10"
     guidetolerance="10"
     inkscape:pageopacity="0"
     inkscape:pageshadow="2"
     inkscape:window-width="1920"
     inkscape:window-height="1017"
     id="namedview65"
     showgrid="false"
     inkscape:zoom="2.4425287"
     inkscape:cx="174"
     inkscape:cy="174"
     inkscape:window-x="-8"
     inkscape:window-y="-8"
     inkscape:window-maximized="1"
     inkscape:current-layer="svg111" />
  <metadata
     id="metadata117">
    <rdf:RDF>
      <cc:Work
         rdf:about="">
        <dc:format>image/svg+xml</dc:format>
        <dc:type
           rdf:resource="http://purl.org/dc/dcmitype/StillImage" />
        <dc:title />
      </cc:Work>
    </rdf:RDF>
  </metadata>
  <defs
     id="defs115" />
  <clipPath
     id="p.0">
    <path
       id="path2"
       clip-rule="nonzero"
       d="m0 0l348.0 0l0 348.0l-348.0 0l0 -348.0z" />
  </clipPath>
  <g
     id="g85"
     clip-path="url(#p.0)">
    <path
       id="path5"
       fill-rule="evenodd"
       d="M 0,0 H 348 V 348 H 0 Z"
       fill-opacity="0"
       fill="#000000" />
    <path
       id="path7"
       fill-rule="evenodd"
       d="M -6,0 H 348.01575 V 347.9685 H -6 Z"
       fill="#ffffff" />
    <path
       id="path9"
       fill-rule="evenodd"
       d="m 5.07874,5.7758217 h 336.9134 V 343.4451 H 5.07874 Z"
       fill-opacity="0"
       fill="#000000" />
    <path
       id="path11"
       fill-rule="evenodd"
       d="m 5.07874,5.7758217 h 336.9134 V 343.4451 H 5.07874 Z"
       stroke-linecap="butt"
       stroke-linejoin="round"
       stroke-width="2"
       stroke="#000000" />
    <path
       id="path13"
       fill-rule="evenodd"
       d="m 282.73444,40.553925 v 0 c 0,-8.375591 6.96603,-15.165352 15.55905,-15.165352 v 0 c 4.12653,0 8.08402,1.597773 11.00192,4.441828 2.91788,2.844057 4.55713,6.701422 4.55713,10.723524 v 0 c 0,8.375595 -6.966,15.165356 -15.55905,15.165356 v 0 c -8.59302,0 -15.55905,-6.789761 -15.55905,-15.165356 z"
       fill="#ffffff" />
    <path
       id="path15"
       fill-rule="evenodd"
       d="m 282.73444,40.553925 v 0 c 0,-8.375591 6.96603,-15.165352 15.55905,-15.165352 v 0 c 4.12653,0 8.08402,1.597773 11.00192,4.441828 2.91788,2.844057 4.55713,6.701422 4.55713,10.723524 v 0 c 0,8.375595 -6.966,15.165356 -15.55905,15.165356 v 0 c -8.59302,0 -15.55905,-6.789761 -15.55905,-15.165356 z"
       stroke-linecap="butt"
       stroke-linejoin="round"
       stroke-width="2"
       stroke="#000000" />
    <path
       id="path17"
       fill-rule="evenodd"
       d="M 50.949955,90.04964 60.41452,72.726802 69.879089,90.04964 Z"
       fill="#000000" />
    <path
       id="path19"
       fill-rule="evenodd"
       d="M 50.949955,90.04964 60.41452,72.726802 69.879089,90.04964 Z"
       stroke-linecap="butt"
       stroke-linejoin="round"
       stroke-width="2"
       stroke="#000000" />
    <path
       id="path21"
       fill-rule="evenodd"
       d="m 122.04724,268.00525 h 97.92126 v 41.88977 h -97.92126 z"
       fill-opacity="0"
       fill="#000000" />
    <path
       id="path23"
       fill-rule="evenodd"
       d="m 122.04724,268.00525 h 97.92126 v 41.88977 h -97.92126 z"
       stroke-linecap="butt"
       stroke-linejoin="round"
       stroke-width="2"
       stroke="#000000" />
    <path
       id="path25"
       fill-rule="evenodd"
       d="M 29.517061,106.30446 H 289.61154 v 96.81889 H 29.517061 Z"
       fill="#000000" />
    <path
       id="path27"
       fill-rule="evenodd"
       d="M 29.517061,106.30446 H 289.61154 v 96.81889 H 29.517061 Z"
       stroke-linecap="butt"
       stroke-linejoin="round"
       stroke-width="2"
       stroke="#000000" />
    <path
       id="path29"
       fill-rule="evenodd"
       d="m 35.627296,113.07874 h 49.574806 v 82.14173 H 35.627296 Z"
       fill="#ffffff" />
    <path
       id="path31"
       fill-rule="evenodd"
       d="m 35.627296,113.07874 h 49.574806 v 82.14173 H 35.627296 Z"
       stroke-linecap="butt"
       stroke-linejoin="round"
       stroke-width="1"
       stroke="#000000" />
    <path
       id="path33"
       fill-rule="evenodd"
       d="m 85.2021,113.07874 h 49.5748 v 82.14173 H 85.2021 Z"
       fill="#ffffff" />
    <path
       id="path35"
       fill-rule="evenodd"
       d="m 85.2021,113.07874 h 49.5748 v 82.14173 H 85.2021 Z"
       stroke-linecap="butt"
       stroke-linejoin="round"
       stroke-width="1"
       stroke="#000000" />
    <path
       id="path37"
       fill-rule="evenodd"
       d="m 134.77843,113.07874 h 49.5748 v 82.14173 h -49.5748 z"
       fill="#ffffff" />
    <path
       id="path39"
       fill-rule="evenodd"
       d="m 134.77843,113.07874 h 49.5748 v 82.14173 h -49.5748 z"
       stroke-linecap="butt"
       stroke-linejoin="round"
       stroke-width="1"
       stroke="#000000" />
    <path
       id="path41"
       fill-rule="evenodd"
       d="m 184.35214,113.07874 h 49.5748 v 82.14173 h -49.5748 z"
       fill="#ffffff" />
    <path
       id="path43"
       fill-rule="evenodd"
       d="m 184.35214,113.07874 h 49.5748 v 82.14173 h -49.5748 z"
       stroke-linecap="butt"
       stroke-linejoin="round"
       stroke-width="1"
       stroke="#000000" />
    <path
       id="path45"
       fill-rule="evenodd"
       d="m 233.9265,113.07874 h 49.57481 v 82.14173 H 233.9265 Z"
       fill="#ffffff" />
    <path
       id="path47"
       fill-rule="evenodd"
       d="m 233.9265,113.07874 h 49.57481 v 82.14173 H 233.9265 Z"
       stroke-linecap="butt"
       stroke-linejoin="round"
       stroke-width="1"
       stroke="#000000" />
    <path
       id="path49"
       fill-rule="evenodd"
       d="m 100.52476,90.04964 9.46457,-17.322838 9.46457,17.322838 z"
       fill="#000000" />
    <path
       id="path51"
       fill-rule="evenodd"
       d="m 100.52476,90.04964 9.46457,-17.322838 9.46457,17.322838 z"
       stroke-linecap="butt"
       stroke-linejoin="round"
       stroke-width="2"
       stroke="#000000" />
    <path
       id="path53"
       fill-rule="evenodd"
       d="m 150.09956,90.04964 9.46457,-17.322838 9.46457,17.322838 z"
       fill="#000000" />
    <path
       id="path55"
       fill-rule="evenodd"
       d="m 150.09956,90.04964 9.46457,-17.322838 9.46457,17.322838 z"
       stroke-linecap="butt"
       stroke-linejoin="round"
       stroke-width="2"
       stroke="#000000" />
    <path
       id="path57"
       fill-rule="evenodd"
       d="m 199.67436,90.04964 9.46457,-17.322838 9.46457,17.322838 z"
       fill="#000000" />
    <path
       id="path59"
       fill-rule="evenodd"
       d="m 199.67436,90.04964 9.46457,-17.322838 9.46457,17.322838 z"
       stroke-linecap="butt"
       stroke-linejoin="round"
       stroke-width="2"
       stroke="#000000" />
    <path
       id="path61"
       fill-rule="evenodd"
       d="m 249.24916,90.04964 9.46458,-17.322838 9.46457,17.322838 z"
       fill="#000000" />
    <path
       id="path63"
       fill-rule="evenodd"
       d="m 249.24916,90.04964 9.46458,-17.322838 9.46457,17.322838 z"
       stroke-linecap="butt"
       stroke-linejoin="round"
       stroke-width="2"
       stroke="#000000" />
    <path
       id="path65"
       fill-rule="evenodd"
       d="m 268.1783,219.37772 -9.46457,17.32284 -9.46458,-17.32284 z"
       fill="#000000" />
    <path
       id="path67"
       fill-rule="evenodd"
       d="m 268.1783,219.37772 -9.46457,17.32284 -9.46458,-17.32284 z"
       stroke-linecap="butt"
       stroke-linejoin="round"
       stroke-width="2"
       stroke="#000000" />
    <path
       id="path69"
       fill-rule="evenodd"
       d="m 218.6035,219.37772 -9.46457,17.32284 -9.46457,-17.32284 z"
       fill="#000000" />
    <path
       id="path71"
       fill-rule="evenodd"
       d="m 218.6035,219.37772 -9.46457,17.32284 -9.46457,-17.32284 z"
       stroke-linecap="butt"
       stroke-linejoin="round"
       stroke-width="2"
       stroke="#000000" />
    <path
       id="path73"
       fill-rule="evenodd"
       d="m 169.0287,219.37772 -9.46457,17.32284 -9.46457,-17.32284 z"
       fill="#000000" />
    <path
       id="path75"
       fill-rule="evenodd"
       d="m 169.0287,219.37772 -9.46457,17.32284 -9.46457,-17.32284 z"
       stroke-linecap="butt"
       stroke-linejoin="round"
       stroke-width="2"
       stroke="#000000" />
    <path
       id="path77"
       fill-rule="evenodd"
       d="m 119.4539,219.37772 -9.46457,17.32284 -9.46457,-17.32284 z"
       fill="#000000" />
    <path
       id="path79"
       fill-rule="evenodd"
       d="m 119.4539,219.37772 -9.46457,17.32284 -9.46457,-17.32284 z"
       stroke-linecap="butt"
       stroke-linejoin="round"
       stroke-width="2"
       stroke="#000000" />
    <path
       id="path81"
       fill-rule="evenodd"
       d="m 69.87909,219.37772 -9.464569,17.32284 -9.464565,-17.32284 z"
       fill="#000000" />
    <path
       id="path83"
       fill-rule="evenodd"
       d="m 69.87909,219.37772 -9.464569,17.32284 -9.464565,-17.32284 z"
       stroke-linecap="butt"
       stroke-linejoin="round"
       stroke-width="2"
       stroke="#000000" />
  </g>
  <text
     id="text1966"
     y="297.72205"
     x="171.05266"
     style="font-size:26.2115px;line-height:1.25;font-family:Cabin;-inkscape-font-specification:Cabin;text-align:center;text-anchor:middle;fill:#000000;stroke-width:0.327643"
     xml:space="preserve"><tspan
       style="stroke-width:0.327643"
       y="297.72205"
       x="171.05266"
       id="tspan1964"
       sodipodi:role="line">SBMT</tspan></text>
</svg>
