<?xml version="1.0" encoding="UTF-8" standalone="no"?>
<svg
   xmlns:dc="http://purl.org/dc/elements/1.1/"
   xmlns:cc="http://creativecommons.org/ns#"
   xmlns:rdf="http://www.w3.org/1999/02/22-rdf-syntax-ns#"
   xmlns:svg="http://www.w3.org/2000/svg"
   xmlns="http://www.w3.org/2000/svg"
   xmlns:sodipodi="http://sodipodi.sourceforge.net/DTD/sodipodi-0.dtd"
   xmlns:inkscape="http://www.inkscape.org/namespaces/inkscape"
   inkscape:version="1.0 (4035a4fb49, 2020-05-01)"
   sodipodi:docname="PasswordComponentNV.svg"
   version="1.1"
   viewBox="0.0 0.0 348.0 348.0"
   fill="none"
   stroke="none"
   stroke-linecap="square"
   stroke-miterlimit="10"
   id="svg111">
  <sodipodi:namedview
     inkscape:current-layer="svg111"
     inkscape:window-maximized="1"
     inkscape:window-y="-8"
     inkscape:window-x="-8"
     inkscape:cy="174"
     inkscape:cx="174"
     inkscape:zoom="2.4425287"
     showgrid="false"
     id="namedview65"
     inkscape:window-height="1017"
     inkscape:window-width="1920"
     inkscape:pageshadow="2"
     inkscape:pageopacity="0"
     guidetolerance="10"
     gridtolerance="10"
     objecttolerance="10"
     borderopacity="1"
     bordercolor="#666666"
     pagecolor="#ffffff"
     inkscape:document-rotation="0" />
  <metadata
     id="metadata117">
    <rdf:RDF>
      <cc:Work
         rdf:about="">
        <dc:format>image/svg+xml</dc:format>
        <dc:type
           rdf:resource="http://purl.org/dc/dcmitype/StillImage" />
        <dc:title />
      </cc:Work>
    </rdf:RDF>
  </metadata>
  <defs
     id="defs115" />
  <clipPath
     id="p.0">
    <path
       d="m0 0l348.0 0l0 348.0l-348.0 0l0 -348.0z"
       clip-rule="nonzero"
       id="path2" />
  </clipPath>
  <g
     clip-path="url(#p.0)"
     id="g85">
    <path
       fill="#000000"
       fill-opacity="0"
       d="M 0,0 H 348 V 348 H 0 Z"
       fill-rule="evenodd"
       id="path5" />
    <path
       fill="#ffffff"
       d="M -6,0 H 348.01575 V 347.9685 H -6 Z"
       fill-rule="evenodd"
       id="path7" />
    <path
       fill="#000000"
       fill-opacity="0"
       d="m 5.07874,5.7758217 h 336.9134 V 343.4451 H 5.07874 Z"
       fill-rule="evenodd"
       id="path9" />
    <path
       stroke="#000000"
       stroke-width="2"
       stroke-linejoin="round"
       stroke-linecap="butt"
       d="m 5.07874,5.7758217 h 336.9134 V 343.4451 H 5.07874 Z"
       fill-rule="evenodd"
       id="path11" />
    <path
       fill="#ffffff"
       d="m 282.73444,40.553925 v 0 c 0,-8.375591 6.96603,-15.165352 15.55905,-15.165352 v 0 c 4.12653,0 8.08402,1.597773 11.00192,4.441828 2.91788,2.844057 4.55713,6.701422 4.55713,10.723524 v 0 c 0,8.375595 -6.966,15.165356 -15.55905,15.165356 v 0 c -8.59302,0 -15.55905,-6.789761 -15.55905,-15.165356 z"
       fill-rule="evenodd"
       id="path13" />
    <path
       stroke="#000000"
       stroke-width="2"
       stroke-linejoin="round"
       stroke-linecap="butt"
       d="m 282.73444,40.553925 v 0 c 0,-8.375591 6.96603,-15.165352 15.55905,-15.165352 v 0 c 4.12653,0 8.08402,1.597773 11.00192,4.441828 2.91788,2.844057 4.55713,6.701422 4.55713,10.723524 v 0 c 0,8.375595 -6.966,15.165356 -15.55905,15.165356 v 0 c -8.59302,0 -15.55905,-6.789761 -15.55905,-15.165356 z"
       fill-rule="evenodd"
       id="path15" />
    <path
       fill="#000000"
       d="M 50.949955,90.04964 60.41452,72.726802 69.879089,90.04964 Z"
       fill-rule="evenodd"
       id="path17" />
    <path
       stroke="#000000"
       stroke-width="2"
       stroke-linejoin="round"
       stroke-linecap="butt"
       d="M 50.949955,90.04964 60.41452,72.726802 69.879089,90.04964 Z"
       fill-rule="evenodd"
       id="path19" />
    <path
       fill="#000000"
       fill-opacity="0"
       d="m 122.04724,268.00525 h 97.92126 v 41.88977 h -97.92126 z"
       fill-rule="evenodd"
       id="path21" />
    <path
       stroke="#000000"
       stroke-width="2"
       stroke-linejoin="round"
       stroke-linecap="butt"
       d="m 122.04724,268.00525 h 97.92126 v 41.88977 h -97.92126 z"
       fill-rule="evenodd"
       id="path23" />
    <path
       fill="#000000"
       d="M 29.517061,106.30446 H 289.61154 v 96.81889 H 29.517061 Z"
       fill-rule="evenodd"
       id="path25" />
    <path
       stroke="#000000"
       stroke-width="2"
       stroke-linejoin="round"
       stroke-linecap="butt"
       d="M 29.517061,106.30446 H 289.61154 v 96.81889 H 29.517061 Z"
       fill-rule="evenodd"
       id="path27" />
    <path
       fill="#ffffff"
       d="m 35.627296,113.07874 h 49.574806 v 82.14173 H 35.627296 Z"
       fill-rule="evenodd"
       id="path29" />
    <path
       stroke="#000000"
       stroke-width="1"
       stroke-linejoin="round"
       stroke-linecap="butt"
       d="m 35.627296,113.07874 h 49.574806 v 82.14173 H 35.627296 Z"
       fill-rule="evenodd"
       id="path31" />
    <path
       fill="#ffffff"
       d="m 85.2021,113.07874 h 49.5748 v 82.14173 H 85.2021 Z"
       fill-rule="evenodd"
       id="path33" />
    <path
       stroke="#000000"
       stroke-width="1"
       stroke-linejoin="round"
       stroke-linecap="butt"
       d="m 85.2021,113.07874 h 49.5748 v 82.14173 H 85.2021 Z"
       fill-rule="evenodd"
       id="path35" />
    <path
       fill="#ffffff"
       d="m 134.77843,113.07874 h 49.5748 v 82.14173 h -49.5748 z"
       fill-rule="evenodd"
       id="path37" />
    <path
       stroke="#000000"
       stroke-width="1"
       stroke-linejoin="round"
       stroke-linecap="butt"
       d="m 134.77843,113.07874 h 49.5748 v 82.14173 h -49.5748 z"
       fill-rule="evenodd"
       id="path39" />
    <path
       fill="#ffffff"
       d="m 184.35214,113.07874 h 49.5748 v 82.14173 h -49.5748 z"
       fill-rule="evenodd"
       id="path41" />
    <path
       stroke="#000000"
       stroke-width="1"
       stroke-linejoin="round"
       stroke-linecap="butt"
       d="m 184.35214,113.07874 h 49.5748 v 82.14173 h -49.5748 z"
       fill-rule="evenodd"
       id="path43" />
    <path
       fill="#ffffff"
       d="m 233.9265,113.07874 h 49.57481 v 82.14173 H 233.9265 Z"
       fill-rule="evenodd"
       id="path45" />
    <path
       stroke="#000000"
       stroke-width="1"
       stroke-linejoin="round"
       stroke-linecap="butt"
       d="m 233.9265,113.07874 h 49.57481 v 82.14173 H 233.9265 Z"
       fill-rule="evenodd"
       id="path47" />
    <path
       fill="#000000"
       d="m 100.52476,90.04964 9.46457,-17.322838 9.46457,17.322838 z"
       fill-rule="evenodd"
       id="path49" />
    <path
       stroke="#000000"
       stroke-width="2"
       stroke-linejoin="round"
       stroke-linecap="butt"
       d="m 100.52476,90.04964 9.46457,-17.322838 9.46457,17.322838 z"
       fill-rule="evenodd"
       id="path51" />
    <path
       fill="#000000"
       d="m 150.09956,90.04964 9.46457,-17.322838 9.46457,17.322838 z"
       fill-rule="evenodd"
       id="path53" />
    <path
       stroke="#000000"
       stroke-width="2"
       stroke-linejoin="round"
       stroke-linecap="butt"
       d="m 150.09956,90.04964 9.46457,-17.322838 9.46457,17.322838 z"
       fill-rule="evenodd"
       id="path55" />
    <path
       fill="#000000"
       d="m 199.67436,90.04964 9.46457,-17.322838 9.46457,17.322838 z"
       fill-rule="evenodd"
       id="path57" />
    <path
       stroke="#000000"
       stroke-width="2"
       stroke-linejoin="round"
       stroke-linecap="butt"
       d="m 199.67436,90.04964 9.46457,-17.322838 9.46457,17.322838 z"
       fill-rule="evenodd"
       id="path59" />
    <path
       fill="#000000"
       d="m 249.24916,90.04964 9.46458,-17.322838 9.46457,17.322838 z"
       fill-rule="evenodd"
       id="path61" />
    <path
       stroke="#000000"
       stroke-width="2"
       stroke-linejoin="round"
       stroke-linecap="butt"
       d="m 249.24916,90.04964 9.46458,-17.322838 9.46457,17.322838 z"
       fill-rule="evenodd"
       id="path63" />
    <path
       fill="#000000"
       d="m 268.1783,219.37772 -9.46457,17.32284 -9.46458,-17.32284 z"
       fill-rule="evenodd"
       id="path65" />
    <path
       stroke="#000000"
       stroke-width="2"
       stroke-linejoin="round"
       stroke-linecap="butt"
       d="m 268.1783,219.37772 -9.46457,17.32284 -9.46458,-17.32284 z"
       fill-rule="evenodd"
       id="path67" />
    <path
       fill="#000000"
       d="m 218.6035,219.37772 -9.46457,17.32284 -9.46457,-17.32284 z"
       fill-rule="evenodd"
       id="path69" />
    <path
       stroke="#000000"
       stroke-width="2"
       stroke-linejoin="round"
       stroke-linecap="butt"
       d="m 218.6035,219.37772 -9.46457,17.32284 -9.46457,-17.32284 z"
       fill-rule="evenodd"
       id="path71" />
    <path
       fill="#000000"
       d="m 169.0287,219.37772 -9.46457,17.32284 -9.46457,-17.32284 z"
       fill-rule="evenodd"
       id="path73" />
    <path
       stroke="#000000"
       stroke-width="2"
       stroke-linejoin="round"
       stroke-linecap="butt"
       d="m 169.0287,219.37772 -9.46457,17.32284 -9.46457,-17.32284 z"
       fill-rule="evenodd"
       id="path75" />
    <path
       fill="#000000"
       d="m 119.4539,219.37772 -9.46457,17.32284 -9.46457,-17.32284 z"
       fill-rule="evenodd"
       id="path77" />
    <path
       stroke="#000000"
       stroke-width="2"
       stroke-linejoin="round"
       stroke-linecap="butt"
       d="m 119.4539,219.37772 -9.46457,17.32284 -9.46457,-17.32284 z"
       fill-rule="evenodd"
       id="path79" />
    <path
       fill="#000000"
       d="m 69.87909,219.37772 -9.464569,17.32284 -9.464565,-17.32284 z"
       fill-rule="evenodd"
       id="path81" />
    <path
       stroke="#000000"
       stroke-width="2"
       stroke-linejoin="round"
       stroke-linecap="butt"
       d="m 69.87909,219.37772 -9.464569,17.32284 -9.464565,-17.32284 z"
       fill-rule="evenodd"
       id="path83" />
  </g>
  <g
     style="font-size:26.2115px;line-height:1.25;font-family:Cabin;-inkscape-font-specification:Cabin;text-align:center;text-anchor:middle;fill:#000000;stroke-width:0.327643"
     id="text1966"
     aria-label="SBMT">
    <path
       id="path882"
       style="stroke-width:0.327643"
       d="m 145.21856,298.08901 q -3.85309,0 -6.02864,-1.23194 l 0.34075,-3.22402 q 2.33282,1.86102 5.74032,1.86102 1.80859,0 2.90947,-0.60287 1.10089,-0.60286 1.10089,-1.93965 0,-0.60286 -0.26212,-1.07467 -0.26211,-0.47181 -0.70771,-0.83877 -0.41938,-0.36696 -0.99604,-0.62907 -0.55044,-0.28833 -1.17951,-0.49802 l -2.90948,-0.96983 -1.28436,-0.52423 q -0.49802,-0.20969 -1.04846,-0.52423 -0.52423,-0.34075 -0.99604,-0.81255 -0.4456,-0.47181 -0.73392,-1.07467 -0.28833,-0.60287 -0.28833,-1.363 0,-0.99604 0.31454,-1.99208 0.34075,-1.02225 1.10088,-1.80859 0.78635,-0.81256 2.0445,-1.31058 1.28436,-0.52423 3.17159,-0.52423 0.81256,0 1.67754,0.13106 0.86497,0.10485 1.65132,0.28833 0.78634,0.18348 1.41542,0.41938 0.65529,0.23591 1.04846,0.47181 l -0.28833,2.90948 q -3.1978,-1.65133 -5.29472,-1.65133 -0.73392,0 -1.44163,0.15727 -0.6815,0.13106 -1.23194,0.41938 -0.52423,0.28833 -0.86498,0.76014 -0.31454,0.47181 -0.31454,1.10088 0,0.81256 0.41938,1.28436 0.41939,0.4456 1.23195,0.81256 0.81255,0.34075 2.01828,0.70771 1.23194,0.36696 2.83084,1.02225 0.70771,0.28833 1.41542,0.65529 0.70771,0.36696 1.25816,0.94361 0.57665,0.57665 0.94361,1.41542 0.36696,0.83877 0.36696,2.0445 0,0.83877 -0.26211,1.75617 -0.26212,0.9174 -1.04846,1.67754 -0.76014,0.76013 -2.17556,1.25815 -1.38921,0.49802 -3.6434,0.49802 z" />
    <path
       id="path884"
       style="stroke-width:0.327643"
       d="m 161.78382,297.72205 h -6.55287 V 279.374 h 4.42974 q 1.70375,0 2.98811,0.18348 1.31058,0.18348 2.17556,0.70771 0.89119,0.49802 1.33678,1.38921 0.4456,0.89119 0.4456,2.30661 0,1.31057 -0.31454,2.20176 -0.28833,0.8912 -1.20573,1.78239 1.67754,0.62907 2.38525,1.67753 0.73392,1.02225 0.73392,2.67358 0,5.42578 -6.42182,5.42578 z m -1.20573,-15.91038 h -2.56872 v 5.11124 h 3.17159 q 0.49802,0 0.96982,-0.0786 0.47181,-0.0786 0.83877,-0.34075 0.39317,-0.28832 0.62908,-0.81255 0.2359,-0.52423 0.2359,-1.41542 0,-1.49406 -0.81256,-1.96587 -0.81255,-0.49801 -2.46388,-0.49801 z m 1.17952,7.49648 h -3.74824 v 5.95001 h 2.83084 q 2.2804,0 3.38128,-0.57665 1.10088,-0.57665 1.10088,-2.30661 0,-3.06675 -3.56476,-3.06675 z" />
    <path
       id="path886"
       style="stroke-width:0.327643"
       d="m 189.31696,297.72205 h -2.93569 l -1.67754,-13.31545 -4.87534,9.14782 -4.95397,-9.14782 -1.67754,13.31545 h -2.90947 L 172.7775,279.374 h 2.33282 l 4.69186,8.83327 4.66565,-8.83327 h 2.35903 z" />
    <path
       id="path888"
       style="stroke-width:0.327643"
       d="m 203.73246,281.96893 h -5.29472 v 15.75312 h -2.80463 V 281.96893 H 190.3646 V 279.374 h 13.36786 z" />
  </g>
</svg>
