<?xml version="1.0" encoding="UTF-8" standalone="no"?>
<svg
   xmlns:dc="http://purl.org/dc/elements/1.1/"
   xmlns:cc="http://creativecommons.org/ns#"
   xmlns:rdf="http://www.w3.org/1999/02/22-rdf-syntax-ns#"
   xmlns:svg="http://www.w3.org/2000/svg"
   xmlns="http://www.w3.org/2000/svg"
   xmlns:sodipodi="http://sodipodi.sourceforge.net/DTD/sodipodi-0.dtd"
   xmlns:inkscape="http://www.inkscape.org/namespaces/inkscape"
   id="svg89"
   stroke-miterlimit="10"
   stroke-linecap="square"
   stroke="none"
   fill="none"
   viewBox="0.0 0.0 348.0 348.0"
   version="1.1"
   sodipodi:docname="WhosOnFirstComponentNV.svg"
   inkscape:version="1.0 (4035a4fb49, 2020-05-01)">
  <sodipodi:namedview
     inkscape:document-rotation="0"
     pagecolor="#ffffff"
     bordercolor="#666666"
     borderopacity="1"
     objecttolerance="10"
     gridtolerance="10"
     guidetolerance="10"
     inkscape:pageopacity="0"
     inkscape:pageshadow="2"
     inkscape:window-width="1920"
     inkscape:window-height="1017"
     id="namedview87"
     showgrid="false"
     inkscape:zoom="1.6387051"
     inkscape:cx="141.78347"
     inkscape:cy="139.54301"
     inkscape:window-x="-8"
     inkscape:window-y="-8"
     inkscape:window-maximized="1"
     inkscape:current-layer="svg89" />
  <metadata
     id="metadata95">
    <rdf:RDF>
      <cc:Work
         rdf:about="">
        <dc:format>image/svg+xml</dc:format>
        <dc:type
           rdf:resource="http://purl.org/dc/dcmitype/StillImage" />
        <dc:title />
      </cc:Work>
    </rdf:RDF>
  </metadata>
  <defs
     id="defs93" />
  <clipPath
     id="p.0">
    <path
       id="path2"
       clip-rule="nonzero"
       d="m0 0l348.0 0l0 348.0l-348.0 0l0 -348.0z" />
  </clipPath>
  <g
     id="g59"
     clip-path="url(#p.0)">
    <path
       id="path5"
       fill-rule="nonzero"
       d="M 0,0 H 348 V 348 H 0 Z"
       fill-opacity="0"
       fill="#000000" />
    <path
       id="path7"
       fill-rule="nonzero"
       d="M -6,0 H 342 V 347.9685 H -6 Z"
       fill="#ffffff" />
    <path
       id="path9"
       fill-rule="nonzero"
       d="m 5.07874,5.7758217 h 336.9134 V 343.44512 H 5.07874 Z"
       fill-opacity="0"
       fill="#000000" />
    <path
       id="path11"
       fill-rule="nonzero"
       d="m 5.07874,5.7758217 h 336.9134 V 343.44512 H 5.07874 Z"
       stroke-linecap="butt"
       stroke-linejoin="round"
       stroke-width="2"
       stroke="#000000" />
    <path
       id="path13"
       fill-rule="nonzero"
       d="m 282.73444,40.553925 v 0 c 0,-8.375591 6.96603,-15.165352 15.55905,-15.165352 v 0 c 4.12653,0 8.08402,1.597773 11.00192,4.441828 2.91788,2.844057 4.55713,6.701422 4.55713,10.723524 v 0 c 0,8.375595 -6.966,15.165356 -15.55905,15.165356 v 0 c -8.59302,0 -15.55905,-6.789761 -15.55905,-15.165356 z"
       fill="#ffffff" />
    <path
       id="path15"
       fill-rule="nonzero"
       d="m 282.73444,40.553925 v 0 c 0,-8.375591 6.96603,-15.165352 15.55905,-15.165352 v 0 c 4.12653,0 8.08402,1.597773 11.00192,4.441828 2.91788,2.844057 4.55713,6.701422 4.55713,10.723524 v 0 c 0,8.375595 -6.966,15.165356 -15.55905,15.165356 v 0 c -8.59302,0 -15.55905,-6.789761 -15.55905,-15.165356 z"
       stroke-linecap="butt"
       stroke-linejoin="round"
       stroke-width="2"
       stroke="#000000" />
    <path
       id="path17"
       fill-rule="nonzero"
       d="M 34.771652,25.389738 H 267.18112 v 67.55905 H 34.771652 Z"
       fill="#000000" />
    <path
       id="path19"
       fill-rule="nonzero"
       d="M 34.771652,25.389738 H 267.18112 v 67.55905 H 34.771652 Z"
       stroke-linecap="butt"
       stroke-linejoin="round"
       stroke-width="2"
       stroke="#000000" />
    <path
       id="path21"
       fill-rule="nonzero"
       d="M 34.771652,202.31795 H 141.41733 v 44.81891 H 34.771652 Z"
       stroke-linecap="butt"
       stroke-linejoin="round"
       stroke-width="1"
       stroke="#000000" />
    <path
       id="path23"
       fill-rule="nonzero"
       d="M 34.771652,125.22639 H 141.41733 v 44.8189 H 34.771652 Z"
       fill-opacity="0"
       fill="#000000" />
    <path
       id="path25"
       fill-rule="nonzero"
       d="M 34.771652,125.22639 H 141.41733 v 44.8189 H 34.771652 Z"
       stroke-linecap="butt"
       stroke-linejoin="round"
       stroke-width="1"
       stroke="#000000" />
    <path
       id="path27"
       fill-rule="nonzero"
       d="M 34.771652,270.60397 H 141.41733 v 44.81891 H 34.771652 Z"
       fill-opacity="0"
       fill="#000000" />
    <path
       id="path29"
       fill-rule="nonzero"
       d="M 34.771652,270.60397 H 141.41733 v 44.81891 H 34.771652 Z"
       stroke-linecap="butt"
       stroke-linejoin="round"
       stroke-width="1"
       stroke="#000000" />
    <path
       id="path31"
       fill-rule="nonzero"
       d="m 157.40683,202.31795 h 106.64566 v 44.81891 H 157.40683 Z"
       fill-opacity="0"
       fill="#000000" />
    <path
       id="path33"
       fill-rule="nonzero"
       d="m 157.40683,202.31795 h 106.64566 v 44.81891 H 157.40683 Z"
       stroke-linecap="butt"
       stroke-linejoin="round"
       stroke-width="1"
       stroke="#000000" />
    <path
       id="path35"
       fill-rule="nonzero"
       d="m 157.40683,125.22639 h 106.64566 v 44.8189 H 157.40683 Z"
       fill-opacity="0"
       fill="#000000" />
    <path
       id="path37"
       fill-rule="nonzero"
       d="m 157.40683,125.22639 h 106.64566 v 44.8189 H 157.40683 Z"
       stroke-linecap="butt"
       stroke-linejoin="round"
       stroke-width="1"
       stroke="#000000" />
    <path
       id="path39"
       fill-rule="nonzero"
       d="m 157.40683,270.60397 h 106.64566 v 44.81891 H 157.40683 Z"
       fill-opacity="0"
       fill="#000000" />
    <path
       id="path41"
       fill-rule="nonzero"
       d="m 157.40683,270.60397 h 106.64566 v 44.81891 H 157.40683 Z"
       stroke-linecap="butt"
       stroke-linejoin="round"
       stroke-width="1"
       stroke="#000000" />
    <path
       id="path43"
       fill-rule="nonzero"
       d="m 277.46194,106.3832 h 52.66141 v 209.03937 h -52.66141 z"
       fill="#000000" />
    <path
       id="path45"
       fill-rule="nonzero"
       d="m 277.46194,106.3832 h 52.66141 v 209.03937 h -52.66141 z"
       stroke-linecap="butt"
       stroke-linejoin="round"
       stroke-width="2"
       stroke="#000000" />
    <path
       id="path47"
       fill-rule="nonzero"
       d="m 290.06036,245.11285 h 27.46457 v 16.47244 h -27.46457 z"
       fill="#ffffff" />
    <path
       id="path49"
       fill-rule="nonzero"
       d="m 290.06036,245.11285 h 27.46457 v 16.47244 h -27.46457 z"
       stroke-linecap="butt"
       stroke-linejoin="round"
       stroke-width="2"
       stroke="#000000" />
    <path
       id="path51"
       fill-rule="nonzero"
       d="m 290.06036,208.9029 h 27.46457 v 16.47243 h -27.46457 z"
       fill="#ffffff" />
    <path
       id="path53"
       fill-rule="nonzero"
       d="m 290.06036,208.9029 h 27.46457 v 16.47243 h -27.46457 z"
       stroke-linecap="butt"
       stroke-linejoin="round"
       stroke-width="2"
       stroke="#000000" />
    <path
       id="path55"
       fill-rule="nonzero"
       d="m 290.06036,281.32285 h 27.46457 v 16.47244 h -27.46457 z"
       fill="#ffffff" />
    <path
       id="path57"
       fill-rule="nonzero"
       d="m 290.06036,281.32285 h 27.46457 v 16.47244 h -27.46457 z"
       stroke-linecap="butt"
       stroke-linejoin="round"
       stroke-width="2"
       stroke="#000000" />
  </g>
  <g
     style="font-size:35.9773px;line-height:1.25;font-family:Cabin;-inkscape-font-specification:Cabin;text-align:center;text-anchor:middle;fill:#ffffff;stroke-width:0.449717"
     id="text914"
     aria-label="[ DSPLY ]">
    <path
       id="path897"
       style="stroke-width:0.449717"
       d="M 90.70617,75.421152 H 81.460004 V 43.581243 h 9.246166 v 2.950138 h -5.900277 v 25.939632 h 5.900277 z" />
    <path
       id="path899"
       style="stroke-width:0.449717"
       d="m 111.13003,70.564217 h -9.3541 v -25.18411 h 9.3541 q 2.73428,0 5.03682,0.863456 2.30255,0.863455 3.95751,2.482433 1.65495,1.618979 2.55439,3.957503 0.93541,2.338525 0.93541,5.288663 0,2.914161 -0.93541,5.252686 -0.89944,2.338524 -2.55439,3.99348 -1.61898,1.618978 -3.92153,2.482433 -2.30255,0.863456 -5.0728,0.863456 z m 0,-21.622357 h -5.5405 v 18.060604 h 5.5405 q 4.02946,0 6.15212,-2.410479 2.15864,-2.410479 2.15864,-6.619823 0,-4.209344 -2.15864,-6.619823 -2.12266,-2.410479 -6.15212,-2.410479 z" />
    <path
       id="path901"
       style="stroke-width:0.449717"
       d="m 135.11284,71.067899 q -5.28867,0 -8.27478,-1.690933 l 0.4677,-4.425208 q 3.20198,2.554388 7.87903,2.554388 2.48244,0 3.99348,-0.827478 1.51105,-0.827478 1.51105,-2.66232 0,-0.827478 -0.35977,-1.475069 -0.35978,-0.647591 -0.97139,-1.151274 -0.57564,-0.503682 -1.36714,-0.863455 -0.75552,-0.39575 -1.61898,-0.683568 l -3.99348,-1.33116 -1.76288,-0.719546 q -0.68357,-0.287819 -1.4391,-0.719546 -0.71954,-0.467705 -1.36713,-1.115297 -0.61162,-0.647591 -1.00737,-1.475069 -0.39575,-0.827478 -0.39575,-1.870819 0,-1.367138 0.43173,-2.734275 0.4677,-1.403115 1.51105,-2.482434 1.07931,-1.115296 2.80622,-1.798865 1.76289,-0.719546 4.35326,-0.719546 1.11529,0 2.30255,0.179887 1.18725,0.143909 2.26656,0.39575 1.07932,0.251841 1.94278,0.575637 0.89943,0.323796 1.43909,0.647591 l -0.39575,3.99348 q -4.38923,-2.266569 -7.26741,-2.266569 -1.00737,0 -1.97876,0.215863 -0.9354,0.179887 -1.69093,0.575637 -0.71954,0.39575 -1.18725,1.043342 -0.43173,0.647591 -0.43173,1.511046 0,1.115297 0.57564,1.762888 0.57564,0.611614 1.69093,1.115296 1.1153,0.467705 2.77026,0.971387 1.69093,0.503683 3.88554,1.403115 0.97139,0.39575 1.94278,0.899432 0.97138,0.503683 1.72691,1.295183 0.7915,0.791501 1.29518,1.942774 0.50368,1.151274 0.50368,2.80623 0,1.151273 -0.35977,2.410479 -0.35977,1.259205 -1.43909,2.302547 -1.04334,1.043341 -2.98612,1.72691 -1.90679,0.683569 -5.00084,0.683569 z" />
    <path
       id="path903"
       style="stroke-width:0.449717"
       d="m 157.95786,61.929665 h -5.14475 v 8.634552 h -3.95751 v -25.18411 h 7.7711 q 2.01473,0 3.74164,0.287819 1.72691,0.251841 2.98612,1.115296 1.29518,0.827478 2.01472,2.374502 0.71955,1.547024 0.71955,4.101412 0,2.446456 -0.75552,4.137389 -0.75553,1.654956 -1.94278,2.66232 -1.18725,1.007365 -2.62634,1.439092 -1.43909,0.431728 -2.80623,0.431728 z M 156.6267,48.725996 h -3.81359 v 9.713871 h 4.49716 q 2.59037,0 3.70566,-1.223228 1.1153,-1.259206 1.1153,-3.849571 0,-1.295183 -0.28782,-2.158638 -0.25184,-0.899433 -0.89943,-1.439092 -0.64759,-0.53966 -1.72691,-0.791501 -1.04334,-0.251841 -2.59037,-0.251841 z" />
    <path
       id="path905"
       style="stroke-width:0.449717"
       d="m 184.69181,70.564217 h -14.96656 v -25.18411 h 3.81359 v 21.622357 h 11.15297 z" />
    <path
       id="path907"
       style="stroke-width:0.449717"
       d="m 202.2611,45.380107 -8.5626,13.707351 v 11.476759 h -3.92153 V 59.087458 L 181.1784,45.380107 h 4.06543 l 6.47592,10.289508 6.47591,-10.289508 z" />
    <path
       id="path909"
       style="stroke-width:0.449717"
       d="m 210.31214,43.581243 h 9.24616 v 31.839909 h -9.24616 v -2.950139 h 5.90028 V 46.531381 h -5.90028 z" />
  </g>
  <g
     aria-label="[ TXT ]"
     id="text918"
     style="font-size:26.337px;line-height:1.25;font-family:Cabin;-inkscape-font-specification:Cabin;text-align:center;text-anchor:middle;fill:#000000;stroke-width:0.329212">
    <path
       d="m 58.484108,159.82588 h -6.768609 v -23.30824 h 6.768609 v 2.15963 H 54.16484 v 18.98898 h 4.319268 z"
       style="stroke-width:0.329212"
       id="path920" />
    <path
       d="M 78.439324,140.44185 H 73.11925 v 15.82854 h -2.818059 v -15.82854 h -5.293737 v -2.60736 h 13.43187 z"
       style="stroke-width:0.329212"
       id="path922" />
    <path
       d="m 94.948095,156.27039 h -3.081429 l -5.030367,-7.26902 -4.635312,7.26902 h -3.081429 l 6.294543,-9.19162 -6.189195,-9.24428 h 3.239451 l 4.582638,6.95296 4.687986,-6.95296 h 3.055092 l -6.399891,8.9019 z"
       style="stroke-width:0.329212"
       id="path924" />
    <path
       d="m 108.94292,140.44185 h -5.32007 v 15.82854 h -2.81806 v -15.82854 h -5.293741 v -2.60736 h 13.431871 z"
       style="stroke-width:0.329212"
       id="path926" />
    <path
       d="m 115.48602,136.51764 h 6.7686 v 23.30824 h -6.7686 v -2.15963 h 4.31926 v -18.98898 h -4.31926 z"
       style="stroke-width:0.329212"
       id="path928" />
  </g>
  <g
     style="font-size:26.337px;line-height:1.25;font-family:Cabin;-inkscape-font-specification:Cabin;text-align:center;text-anchor:middle;fill:#000000;stroke-width:0.329212"
     id="text918-8"
     aria-label="[ TXT ]"
     transform="translate(122.63376,-0.78352471)">
    <path
       id="path920-0"
       style="stroke-width:0.329212"
       d="m 58.484108,159.82588 h -6.768609 v -23.30824 h 6.768609 v 2.15963 H 54.16484 v 18.98898 h 4.319268 z" />
    <path
       id="path922-9"
       style="stroke-width:0.329212"
       d="M 78.439324,140.44185 H 73.11925 v 15.82854 h -2.818059 v -15.82854 h -5.293737 v -2.60736 h 13.43187 z" />
    <path
       id="path924-0"
       style="stroke-width:0.329212"
       d="m 94.948095,156.27039 h -3.081429 l -5.030367,-7.26902 -4.635312,7.26902 h -3.081429 l 6.294543,-9.19162 -6.189195,-9.24428 h 3.239451 l 4.582638,6.95296 4.687986,-6.95296 h 3.055092 l -6.399891,8.9019 z" />
    <path
       id="path926-0"
       style="stroke-width:0.329212"
       d="m 108.94292,140.44185 h -5.32007 v 15.82854 h -2.81806 v -15.82854 h -5.293741 v -2.60736 h 13.431871 z" />
    <path
       id="path928-1"
       style="stroke-width:0.329212"
       d="m 115.48602,136.51764 h 6.7686 v 23.30824 h -6.7686 v -2.15963 h 4.31926 v -18.98898 h -4.31926 z" />
  </g>
  <g
     style="font-size:26.337px;line-height:1.25;font-family:Cabin;-inkscape-font-specification:Cabin;text-align:center;text-anchor:middle;fill:#000000;stroke-width:0.329212"
     id="text918-2"
     aria-label="[ TXT ]"
     transform="translate(-0.91370406,76.987059)">
    <path
       id="path920-8"
       style="stroke-width:0.329212"
       d="m 58.484108,159.82588 h -6.768609 v -23.30824 h 6.768609 v 2.15963 H 54.16484 v 18.98898 h 4.319268 z" />
    <path
       id="path922-4"
       style="stroke-width:0.329212"
       d="M 78.439324,140.44185 H 73.11925 v 15.82854 h -2.818059 v -15.82854 h -5.293737 v -2.60736 h 13.43187 z" />
    <path
       id="path924-2"
       style="stroke-width:0.329212"
       d="m 94.948095,156.27039 h -3.081429 l -5.030367,-7.26902 -4.635312,7.26902 h -3.081429 l 6.294543,-9.19162 -6.189195,-9.24428 h 3.239451 l 4.582638,6.95296 4.687986,-6.95296 h 3.055092 l -6.399891,8.9019 z" />
    <path
       id="path926-5"
       style="stroke-width:0.329212"
       d="m 108.94292,140.44185 h -5.32007 v 15.82854 h -2.81806 v -15.82854 h -5.293741 v -2.60736 h 13.431871 z" />
    <path
       id="path928-6"
       style="stroke-width:0.329212"
       d="m 115.48602,136.51764 h 6.7686 v 23.30824 h -6.7686 v -2.15963 h 4.31926 v -18.98898 h -4.31926 z" />
  </g>
  <g
     transform="translate(121.72006,76.203539)"
     aria-label="[ TXT ]"
     id="text918-8-9"
     style="font-size:26.337px;line-height:1.25;font-family:Cabin;-inkscape-font-specification:Cabin;text-align:center;text-anchor:middle;fill:#000000;stroke-width:0.329212">
    <path
       d="m 58.484108,159.82588 h -6.768609 v -23.30824 h 6.768609 v 2.15963 H 54.16484 v 18.98898 h 4.319268 z"
       style="stroke-width:0.329212"
       id="path920-0-6" />
    <path
       d="M 78.439324,140.44185 H 73.11925 v 15.82854 h -2.818059 v -15.82854 h -5.293737 v -2.60736 h 13.43187 z"
       style="stroke-width:0.329212"
       id="path922-9-1" />
    <path
       d="m 94.948095,156.27039 h -3.081429 l -5.030367,-7.26902 -4.635312,7.26902 h -3.081429 l 6.294543,-9.19162 -6.189195,-9.24428 h 3.239451 l 4.582638,6.95296 4.687986,-6.95296 h 3.055092 l -6.399891,8.9019 z"
       style="stroke-width:0.329212"
       id="path924-0-7" />
    <path
       d="m 108.94292,140.44185 h -5.32007 v 15.82854 h -2.81806 v -15.82854 h -5.293741 v -2.60736 h 13.431871 z"
       style="stroke-width:0.329212"
       id="path926-0-1" />
    <path
       d="m 115.48602,136.51764 h 6.7686 v 23.30824 h -6.7686 v -2.15963 h 4.31926 v -18.98898 h -4.31926 z"
       style="stroke-width:0.329212"
       id="path928-1-7" />
  </g>
  <g
     transform="translate(-0.09488253,145.35882)"
     aria-label="[ TXT ]"
     id="text918-2-3"
     style="font-size:26.337px;line-height:1.25;font-family:Cabin;-inkscape-font-specification:Cabin;text-align:center;text-anchor:middle;fill:#000000;stroke-width:0.329212">
    <path
       d="m 58.484108,159.82588 h -6.768609 v -23.30824 h 6.768609 v 2.15963 H 54.16484 v 18.98898 h 4.319268 z"
       style="stroke-width:0.329212"
       id="path920-8-7" />
    <path
       d="M 78.439324,140.44185 H 73.11925 v 15.82854 h -2.818059 v -15.82854 h -5.293737 v -2.60736 h 13.43187 z"
       style="stroke-width:0.329212"
       id="path922-4-1" />
    <path
       d="m 94.948095,156.27039 h -3.081429 l -5.030367,-7.26902 -4.635312,7.26902 h -3.081429 l 6.294543,-9.19162 -6.189195,-9.24428 h 3.239451 l 4.582638,6.95296 4.687986,-6.95296 h 3.055092 l -6.399891,8.9019 z"
       style="stroke-width:0.329212"
       id="path924-2-1" />
    <path
       d="m 108.94292,140.44185 h -5.32007 v 15.82854 h -2.81806 v -15.82854 h -5.293741 v -2.60736 h 13.431871 z"
       style="stroke-width:0.329212"
       id="path926-5-3" />
    <path
       d="m 115.48602,136.51764 h 6.7686 v 23.30824 h -6.7686 v -2.15963 h 4.31926 v -18.98898 h -4.31926 z"
       style="stroke-width:0.329212"
       id="path928-6-1" />
  </g>
  <g
     style="font-size:26.337px;line-height:1.25;font-family:Cabin;-inkscape-font-specification:Cabin;text-align:center;text-anchor:middle;fill:#000000;stroke-width:0.329212"
     id="text918-8-9-1"
     aria-label="[ TXT ]"
     transform="translate(122.53888,144.5753)">
    <path
       id="path920-0-6-4"
       style="stroke-width:0.329212"
       d="m 58.484108,159.82588 h -6.768609 v -23.30824 h 6.768609 v 2.15963 H 54.16484 v 18.98898 h 4.319268 z" />
    <path
       id="path922-9-1-6"
       style="stroke-width:0.329212"
       d="M 78.439324,140.44185 H 73.11925 v 15.82854 h -2.818059 v -15.82854 h -5.293737 v -2.60736 h 13.43187 z" />
    <path
       id="path924-0-7-0"
       style="stroke-width:0.329212"
       d="m 94.948095,156.27039 h -3.081429 l -5.030367,-7.26902 -4.635312,7.26902 h -3.081429 l 6.294543,-9.19162 -6.189195,-9.24428 h 3.239451 l 4.582638,6.95296 4.687986,-6.95296 h 3.055092 l -6.399891,8.9019 z" />
    <path
       id="path926-0-1-9"
       style="stroke-width:0.329212"
       d="m 108.94292,140.44185 h -5.32007 v 15.82854 h -2.81806 v -15.82854 h -5.293741 v -2.60736 h 13.431871 z" />
    <path
       id="path928-1-7-1"
       style="stroke-width:0.329212"
       d="m 115.48602,136.51764 h 6.7686 v 23.30824 h -6.7686 v -2.15963 h 4.31926 v -18.98898 h -4.31926 z" />
  </g>
</svg>
